<?xml version="1.0" encoding="UTF-8"?>
<svg xmlns="http://www.w3.org/2000/svg" xmlns:xlink="http://www.w3.org/1999/xlink" width="50" height="50" viewBox="0 0 375 374.999991" version="1.2">
<defs>
<clipPath id="clip1">
  <path d="M 18 77.726562 L 356 77.726562 L 356 193 L 18 193 Z M 18 77.726562 "/>
</clipPath>
<clipPath id="clip2">
  <path d="M 3 214 L 371 214 L 371 297.476562 L 3 297.476562 Z M 3 214 "/>
</clipPath>
</defs>
<g id="surface1">
<g clip-path="url(#clip1)" clip-rule="nonzero">
<path style=" stroke:none;fill-rule:nonzero;fill:rgb(100%,72.938538%,28.62854%);fill-opacity:1;" d="M 106.890625 157.519531 C 106.890625 162.042969 107.378906 165.710938 108.234375 168.398438 C 109.210938 171.089844 110.429688 174.023438 112.140625 177.199219 C 112.75 178.179688 112.996094 179.15625 112.996094 180.011719 C 112.996094 181.234375 112.261719 182.457031 110.675781 183.679688 L 102.980469 188.8125 C 101.882812 189.546875 100.785156 189.914062 99.808594 189.914062 C 98.585938 189.914062 97.363281 189.300781 96.144531 188.199219 C 94.433594 186.367188 92.96875 184.410156 91.75 182.457031 C 90.527344 180.378906 89.304688 178.054688 87.960938 175.246094 C 78.4375 186.488281 66.472656 192.113281 52.0625 192.113281 C 41.804688 192.113281 33.621094 189.179688 27.636719 183.3125 C 21.65625 177.445312 18.601562 169.621094 18.601562 159.84375 C 18.601562 149.453125 22.265625 141.019531 29.714844 134.664062 C 37.164062 128.308594 47.054688 125.128906 59.632812 125.128906 C 63.785156 125.128906 68.058594 125.496094 72.578125 126.109375 C 77.09375 126.71875 81.734375 127.699219 86.621094 128.796875 L 86.621094 119.875 C 86.621094 110.585938 84.664062 104.105469 80.878906 100.316406 C 76.972656 96.527344 70.378906 94.695312 60.976562 94.695312 C 56.703125 94.695312 52.304688 95.183594 47.789062 96.285156 C 43.269531 97.382812 38.875 98.730469 34.597656 100.441406 C 32.644531 101.296875 31.179688 101.785156 30.324219 102.03125 C 29.472656 102.273438 28.859375 102.394531 28.371094 102.394531 C 26.660156 102.394531 25.808594 101.171875 25.808594 98.605469 L 25.808594 92.617188 C 25.808594 90.660156 26.050781 89.195312 26.660156 88.339844 C 27.273438 87.484375 28.371094 86.628906 30.082031 85.773438 C 34.355469 83.574219 39.484375 81.738281 45.46875 80.273438 C 51.449219 78.683594 57.800781 77.949219 64.515625 77.949219 C 79.046875 77.949219 89.671875 81.25 96.511719 87.851562 C 103.226562 94.449219 106.648438 104.472656 106.648438 117.921875 L 106.648438 157.519531 Z M 57.3125 176.101562 C 61.34375 176.101562 65.496094 175.367188 69.890625 173.898438 C 74.285156 172.433594 78.195312 169.742188 81.492188 166.078125 C 83.445312 163.753906 84.910156 161.1875 85.640625 158.253906 C 86.375 155.320312 86.863281 151.777344 86.863281 147.621094 L 86.863281 142.488281 C 83.324219 141.632812 79.535156 140.898438 75.628906 140.410156 C 71.722656 139.921875 67.9375 139.675781 64.152344 139.675781 C 55.96875 139.675781 49.984375 141.265625 45.957031 144.566406 C 41.925781 147.867188 39.972656 152.511719 39.972656 158.621094 C 39.972656 164.367188 41.4375 168.644531 44.488281 171.578125 C 47.421875 174.632812 51.695312 176.101562 57.3125 176.101562 Z M 155.375 189.300781 C 153.171875 189.300781 151.703125 188.933594 150.722656 188.078125 C 149.757812 187.34375 148.894531 185.632812 148.160156 183.3125 L 119.46875 88.828125 C 118.734375 86.382812 118.367188 84.792969 118.367188 83.9375 C 118.367188 81.984375 119.34375 80.882812 121.300781 80.882812 L 133.265625 80.882812 C 135.585938 80.882812 137.175781 81.25 138.027344 82.105469 C 139.003906 82.839844 139.738281 84.550781 140.46875 86.871094 L 160.980469 167.789062 L 180.039062 86.871094 C 180.644531 84.429688 181.378906 82.839844 182.355469 82.105469 C 183.335938 81.371094 185.035156 80.882812 187.242188 80.882812 L 197.007812 80.882812 C 199.328125 80.882812 200.910156 81.25 201.890625 82.105469 C 202.871094 82.839844 203.71875 84.550781 204.210938 86.875 L 223.511719 168.765625 L 244.632812 86.875 C 245.367188 84.429688 246.214844 82.839844 247.082031 82.105469 C 248.046875 81.375 249.644531 80.882812 251.835938 80.882812 L 263.199219 80.882812 C 265.144531 80.882812 266.238281 81.863281 266.238281 83.941406 C 266.238281 84.550781 266.125 85.164062 266.007812 85.894531 C 265.878906 86.628906 265.636719 87.605469 265.144531 88.953125 L 235.714844 183.433594 C 234.980469 185.882812 234.128906 187.46875 233.152344 188.203125 C 232.171875 188.9375 230.585938 189.425781 228.511719 189.425781 L 218.011719 189.425781 C 215.691406 189.425781 214.105469 189.058594 213.128906 188.203125 C 212.148438 187.347656 211.296875 185.757812 210.808594 183.3125 L 191.878906 104.476562 L 173.082031 183.191406 C 172.460938 185.636719 171.726562 187.226562 170.761719 188.078125 C 169.78125 188.9375 168.066406 189.300781 165.878906 189.300781 Z M 312.28125 192.601562 C 305.925781 192.601562 299.589844 191.867188 293.480469 190.402344 C 287.371094 188.933594 282.605469 187.34375 279.4375 185.511719 C 277.476562 184.410156 276.136719 183.191406 275.648438 182.089844 C 275.15625 180.988281 274.914062 179.765625 274.914062 178.667969 L 274.914062 172.433594 C 274.914062 169.867188 275.890625 168.644531 277.722656 168.644531 C 278.457031 168.644531 279.191406 168.765625 279.925781 169.011719 C 280.660156 169.253906 281.753906 169.742188 282.980469 170.234375 C 287.128906 172.066406 291.652344 173.535156 296.40625 174.511719 C 301.289062 175.488281 306.058594 175.976562 310.941406 175.976562 C 318.632812 175.976562 324.609375 174.632812 328.773438 171.945312 C 332.921875 169.253906 335.113281 165.34375 335.113281 160.332031 C 335.113281 156.910156 334.019531 154.097656 331.828125 151.777344 C 329.625 149.453125 325.476562 147.375 319.484375 145.421875 L 301.777344 139.921875 C 292.863281 137.109375 286.277344 132.953125 282.246094 127.453125 C 278.210938 122.074219 276.136719 116.085938 276.136719 109.730469 C 276.136719 104.597656 277.230469 100.074219 279.433594 96.164062 C 281.640625 92.25 284.5625 88.828125 288.222656 86.140625 C 291.894531 83.328125 296.046875 81.25 300.929688 79.78125 C 305.8125 78.316406 310.941406 77.707031 316.3125 77.707031 C 318.992188 77.707031 321.800781 77.828125 324.496094 78.195312 C 327.304688 78.5625 329.867188 79.050781 332.433594 79.539062 C 334.867188 80.148438 337.1875 80.761719 339.390625 81.496094 C 341.59375 82.226562 343.292969 82.960938 344.519531 83.695312 C 346.234375 84.671875 347.457031 85.648438 348.179688 86.75 C 348.914062 87.726562 349.289062 89.074219 349.289062 90.785156 L 349.289062 96.527344 C 349.289062 99.09375 348.308594 100.441406 346.476562 100.441406 C 345.5 100.441406 343.914062 99.953125 341.839844 98.972656 C 334.867188 95.792969 327.058594 94.207031 318.386719 94.207031 C 311.429688 94.207031 305.925781 95.304688 302.152344 97.628906 C 298.363281 99.953125 296.40625 103.496094 296.40625 108.507812 C 296.40625 111.929688 297.628906 114.863281 300.078125 117.1875 C 302.511719 119.507812 307.035156 121.832031 313.503906 123.90625 L 330.847656 129.410156 C 339.636719 132.21875 345.988281 136.132812 349.777344 141.140625 C 353.550781 146.152344 355.394531 151.898438 355.394531 158.253906 C 355.394531 163.511719 354.285156 168.277344 352.210938 172.433594 C 350.023438 176.589844 347.082031 180.253906 343.292969 183.191406 C 339.519531 186.246094 334.996094 188.445312 329.738281 190.035156 C 324.25 191.746094 318.515625 192.601562 312.28125 192.601562 Z M 312.28125 192.601562 "/>
</g>
<g clip-path="url(#clip2)" clip-rule="nonzero">
<path style=" stroke:none;fill-rule:nonzero;fill:rgb(100%,72.938538%,28.62854%);fill-opacity:1;" d="M 335.359375 252 C 295.179688 281.703125 236.824219 297.476562 186.636719 297.476562 C 116.292969 297.476562 52.917969 271.4375 5.054688 228.164062 C 1.261719 224.746094 4.683594 220.101562 9.199219 222.785156 C 60.976562 252.863281 124.839844 271.074219 190.894531 271.074219 C 235.464844 271.074219 284.445312 261.789062 329.492188 242.710938 C 336.21875 239.65625 341.953125 247.109375 335.355469 252 Z M 352.097656 232.9375 C 346.96875 226.332031 318.144531 229.765625 305.078125 231.351562 C 301.171875 231.839844 300.554688 228.410156 304.097656 225.84375 C 327.058594 209.710938 364.789062 214.359375 369.179688 219.734375 C 373.589844 225.238281 367.972656 263 346.480469 281.097656 C 343.179688 283.910156 339.996094 282.4375 341.464844 278.777344 C 346.347656 266.675781 357.226562 239.410156 352.097656 232.9375 Z M 352.097656 232.9375 "/>
</g>
</g>
</svg>
