<?xml version="1.0" encoding="UTF-8"?>
<svg xmlns="http://www.w3.org/2000/svg" xmlns:xlink="http://www.w3.org/1999/xlink" width="50" height="50" viewBox="0 0 375 374.999991" version="1.2">
<g id="surface1">
<path style=" stroke:none;fill-rule:nonzero;fill:rgb(100%,72.938538%,28.62854%);fill-opacity:1;" d="M 251.445312 167.839844 C 244.683594 167.839844 239.640625 171.160156 239.640625 179.148438 C 239.640625 185.105469 242.960938 189.339844 251.074219 189.339844 C 257.953125 189.339844 262.628906 185.285156 262.628906 178.894531 C 262.628906 171.644531 258.453125 167.839844 251.445312 167.839844 Z M 237.925781 224.226562 C 236.320312 226.191406 234.726562 228.28125 234.726562 230.683594 C 234.726562 235.59375 240.988281 237.074219 249.601562 237.074219 C 256.730469 237.074219 266.441406 236.578125 266.441406 229.949219 C 266.441406 226.015625 261.769531 225.769531 255.863281 225.398438 L 237.96875 224.175781 Z M 274.3125 168.207031 C 276.519531 171.039062 278.859375 174.960938 278.859375 180.617188 C 278.859375 194.246094 268.121094 202.234375 252.675781 202.234375 C 248.699219 202.234375 245.222656 201.738281 242.960938 201.128906 L 238.90625 207.585938 L 250.957031 208.320312 C 272.230469 209.671875 284.757812 210.292969 284.757812 226.621094 C 284.757812 240.75 272.351562 248.722656 250.957031 248.722656 C 228.707031 248.722656 220.226562 243.070312 220.226562 233.324219 C 220.226562 227.800781 222.695312 224.847656 226.988281 220.789062 C 222.933594 219.082031 221.578125 216.007812 221.578125 212.691406 C 221.578125 209.992188 222.933594 207.527344 225.148438 205.242188 L 232.765625 197.871094 C 226.742188 194.929688 222.1875 188.53125 222.1875 179.492188 C 222.1875 165.367188 231.535156 155.667969 250.34375 155.667969 C 255.632812 155.667969 258.828125 156.15625 261.65625 156.898438 L 285.628906 156.898438 L 285.628906 167.335938 L 274.316406 168.195312 M 307.25 145.882812 C 300.289062 145.882812 296.1875 141.828125 296.1875 134.820312 C 296.1875 127.8125 300.242188 124.011719 307.25 124.011719 C 314.378906 124.011719 318.4375 127.828125 318.4375 134.820312 C 318.4375 141.8125 314.378906 145.882812 307.253906 145.882812 Z M 291.34375 219.707031 L 291.34375 210.011719 L 297.617188 209.152344 C 299.335938 208.90625 299.585938 208.535156 299.585938 206.6875 L 299.585938 170.582031 C 299.585938 169.230469 299.214844 168.375 297.984375 168 L 291.34375 165.667969 L 292.695312 155.726562 L 318.144531 155.726562 L 318.144531 206.707031 C 318.144531 208.675781 318.265625 208.917969 320.113281 209.171875 L 326.378906 210.03125 L 326.378906 219.71875 L 291.332031 219.71875 M 375.039062 214.949219 C 369.75 217.53125 362.003906 219.917969 354.996094 219.917969 C 340.363281 219.917969 334.835938 214.027344 334.835938 200.140625 L 334.835938 167.953125 C 334.835938 167.21875 334.835938 166.722656 333.839844 166.722656 L 325.292969 166.722656 L 325.292969 155.792969 C 336.109375 154.601562 340.414062 149.15625 341.765625 135.765625 L 353.445312 135.765625 L 353.445312 153.210938 C 353.445312 154.066406 353.445312 154.441406 354.433594 154.441406 L 371.769531 154.441406 L 371.769531 166.722656 L 353.398438 166.722656 L 353.398438 196.027344 C 353.398438 203.277344 355.125 206.101562 361.75 206.101562 C 365.195312 206.101562 368.707031 205.242188 371.707031 204.136719 L 375.027344 214.945312 "/>
<path style=" stroke:none;fill-rule:nonzero;fill:rgb(100%,72.938538%,28.62854%);fill-opacity:1;" d="M 166.503906 179.683594 L 92.808594 106.050781 C 88.570312 101.8125 81.683594 101.8125 77.4375 106.050781 L 62.140625 121.339844 L 81.546875 140.734375 C 86.058594 139.210938 91.230469 140.238281 94.816406 143.820312 C 95.671875 144.679688 96.394531 145.636719 96.980469 146.695312 C 97.566406 147.757812 97.996094 148.875 98.265625 150.058594 C 98.539062 151.238281 98.640625 152.433594 98.574219 153.640625 C 98.507812 154.851562 98.277344 156.027344 97.882812 157.171875 L 116.589844 175.863281 C 121.0625 174.308594 126.332031 175.320312 129.949219 178.925781 C 130.753906 179.726562 131.441406 180.617188 132.007812 181.601562 C 132.578125 182.582031 133.007812 183.621094 133.304688 184.71875 C 133.597656 185.8125 133.746094 186.929688 133.746094 188.0625 C 133.746094 189.199219 133.597656 190.316406 133.304688 191.410156 C 133.007812 192.507812 132.578125 193.546875 132.011719 194.527344 C 131.441406 195.511719 130.753906 196.402344 129.953125 197.203125 C 129.148438 198.007812 128.253906 198.691406 127.269531 199.257812 C 126.285156 199.824219 125.246094 200.253906 124.148438 200.546875 C 123.050781 200.839844 121.9375 200.984375 120.800781 200.984375 C 119.664062 200.984375 118.550781 200.839844 117.453125 200.546875 C 116.355469 200.25 115.316406 199.820312 114.335938 199.253906 C 113.351562 198.6875 112.460938 198 111.65625 197.199219 C 107.859375 193.398438 106.925781 187.820312 108.84375 183.144531 L 91.449219 165.757812 L 91.449219 211.636719 C 92.640625 212.246094 93.839844 213.054688 94.867188 214.078125 C 99.917969 219.125 99.917969 227.304688 94.867188 232.359375 C 94.265625 232.957031 93.613281 233.496094 92.910156 233.964844 C 92.203125 234.4375 91.457031 234.835938 90.671875 235.160156 C 89.886719 235.488281 89.078125 235.730469 88.246094 235.898438 C 87.414062 236.0625 86.574219 236.144531 85.722656 236.144531 C 84.875 236.144531 84.03125 236.0625 83.199219 235.898438 C 82.367188 235.730469 81.558594 235.488281 80.773438 235.160156 C 79.988281 234.835938 79.242188 234.4375 78.539062 233.964844 C 77.832031 233.496094 77.179688 232.957031 76.578125 232.359375 C 71.527344 227.300781 71.527344 219.125 76.578125 214.078125 C 77.800781 212.855469 79.214844 211.917969 80.8125 211.257812 L 80.8125 164.964844 C 79.324219 164.328125 77.832031 163.398438 76.578125 162.183594 C 75.671875 161.277344 74.914062 160.257812 74.3125 159.128906 C 73.707031 157.996094 73.28125 156.800781 73.035156 155.542969 C 72.785156 154.285156 72.726562 153.019531 72.855469 151.742188 C 72.988281 150.46875 73.300781 149.238281 73.796875 148.058594 L 54.660156 128.929688 L 4.097656 179.335938 C 3.59375 179.84375 3.144531 180.390625 2.75 180.984375 C 2.351562 181.578125 2.019531 182.203125 1.746094 182.863281 C 1.476562 183.523438 1.269531 184.203125 1.128906 184.902344 C 0.992188 185.601562 0.921875 186.304688 0.921875 187.019531 C 0.921875 187.730469 0.992188 188.4375 1.128906 189.136719 C 1.269531 189.835938 1.476562 190.515625 1.746094 191.171875 C 2.019531 191.832031 2.351562 192.457031 2.75 193.050781 C 3.144531 193.644531 3.59375 194.195312 4.097656 194.699219 L 77.796875 268.332031 C 82.035156 272.570312 88.917969 272.570312 93.164062 268.332031 L 166.503906 195.046875 C 167.007812 194.539062 167.457031 193.992188 167.851562 193.398438 C 168.246094 192.804688 168.578125 192.179688 168.851562 191.519531 C 169.125 190.859375 169.328125 190.179688 169.46875 189.480469 C 169.605469 188.78125 169.675781 188.078125 169.675781 187.363281 C 169.675781 186.652344 169.609375 185.945312 169.46875 185.246094 C 169.328125 184.546875 169.125 183.867188 168.851562 183.210938 C 168.578125 182.550781 168.246094 181.925781 167.851562 181.332031 C 167.457031 180.738281 167.007812 180.1875 166.503906 179.683594 "/>
</g>
</svg>
