<?xml version="1.0" encoding="UTF-8"?>
<svg xmlns="http://www.w3.org/2000/svg" xmlns:xlink="http://www.w3.org/1999/xlink" width="50" height="50" viewBox="0 0 375 374.999991" version="1.2">
<defs>
<clipPath id="clip1">
  <path d="M 2 132.613281 L 91 132.613281 L 91 241 L 2 241 Z M 2 132.613281 "/>
</clipPath>
</defs>
<g id="surface1">
<g clip-path="url(#clip1)" clip-rule="nonzero">
<path style=" stroke:none;fill-rule:nonzero;fill:rgb(100%,72.938538%,28.62854%);fill-opacity:1;" d="M 80.527344 240.503906 L 13.269531 240.503906 C 7.519531 240.503906 2.851562 235.84375 2.851562 230.113281 L 2.851562 141.953125 C 2.851562 136.21875 7.519531 131.5625 13.269531 131.5625 L 80.527344 131.5625 C 86.273438 131.5625 90.945312 136.21875 90.945312 141.953125 L 90.945312 230.089844 C 90.945312 235.824219 86.273438 240.480469 80.527344 240.480469 Z M 80.527344 240.503906 "/>
</g>
<path style=" stroke:none;fill-rule:nonzero;fill:rgb(49.01886%,12.548828%,12.548828%);fill-opacity:1;" d="M 58.058594 225.515625 L 58.058594 182.253906 C 58.058594 182.253906 60.855469 171.90625 23.320312 186.484375 C 23.253906 186.699219 23.253906 146.484375 23.253906 146.484375 L 35.523438 146.398438 L 35.523438 172.164062 C 35.523438 172.164062 69.894531 158.636719 69.894531 182.402344 L 69.894531 225.515625 Z M 65.054688 161.964844 L 52.03125 161.964844 C 56.722656 156.253906 60.964844 146.460938 60.964844 146.460938 L 74.414062 146.460938 C 74.414062 146.460938 72.113281 152.839844 65.054688 161.964844 Z M 23.449219 225.429688 L 23.449219 200.804688 L 35.804688 213.128906 L 23.449219 225.453125 Z M 23.449219 225.429688 "/>
<path style=" stroke:none;fill-rule:nonzero;fill:rgb(100%,72.938538%,28.62854%);fill-opacity:1;" d="M 139.503906 222.359375 L 139.503906 186.933594 C 139.503906 184.445312 137.671875 183.347656 135.5 183.347656 C 130.386719 183.445312 125.496094 184.527344 120.820312 186.589844 L 120.820312 222.359375 L 110.8125 222.359375 L 110.8125 156.574219 L 120.820312 156.574219 L 120.820312 178.261719 C 125.554688 176.542969 131.238281 175.039062 136.917969 175.039062 C 146.003906 175.039062 149.402344 180.621094 149.402344 188.265625 L 149.402344 222.402344 Z M 168.128906 200.890625 C 168.453125 212.785156 170.796875 215.125 178.136719 215.125 C 183.882812 215.125 190.40625 213.191406 195.398438 211.304688 L 197.054688 218.816406 C 191.71875 221.222656 185.21875 223.542969 177.683594 223.542969 C 161.003906 223.542969 158.421875 214.394531 158.421875 199.839844 C 158.421875 191.851562 159.003906 184.59375 160.917969 177.9375 C 165.910156 176.003906 172.605469 175.019531 181.019531 175.019531 C 194.710938 175.019531 198.886719 182.597656 198.886719 195.84375 L 198.886719 200.910156 L 168.128906 200.910156 Z M 180.828125 183.328125 C 177.8125 183.328125 173.078125 183.414062 169.160156 184.1875 C 168.730469 186.183594 168.238281 188.910156 168.085938 194 L 188.964844 194 C 188.964844 187.085938 187.714844 183.347656 180.871094 183.347656 Z M 217.417969 186.546875 L 217.417969 222.359375 L 207.410156 222.359375 L 207.410156 182.125 C 214.683594 178.355469 222.410156 176.222656 230.589844 175.726562 L 230.589844 184.035156 C 226.285156 184.359375 221.335938 184.894531 217.417969 186.613281 Z M 257.019531 223.476562 C 242.082031 223.476562 235.324219 216.175781 235.324219 199.429688 C 235.324219 181.71875 244.257812 174.953125 257.019531 174.953125 C 271.957031 174.953125 278.695312 182.253906 278.695312 199 C 278.695312 216.714844 269.761719 223.476562 257.019531 223.476562 Z M 257.019531 183.328125 C 249.335938 183.328125 245.097656 187.730469 245.097656 199.472656 C 245.097656 212.289062 248.691406 215.148438 257.019531 215.148438 C 264.683594 215.148438 268.945312 210.808594 268.945312 199.085938 C 268.945312 186.269531 265.351562 183.371094 257.019531 183.371094 Z M 326.972656 222.339844 L 315.21875 222.339844 C 312.464844 215.039062 308.632812 207.308594 302.738281 201.039062 L 297.484375 201.039062 L 297.484375 222.339844 L 287.476562 222.339844 L 287.476562 156.574219 L 297.484375 156.574219 L 297.484375 194.363281 L 302.15625 194.363281 C 307.171875 189.023438 311.089844 182.976562 313.90625 176.21875 L 325.164062 176.21875 C 321.332031 183.949219 316.402344 190.777344 310.894531 196.359375 C 317.210938 204.457031 322.578125 213.136719 326.992188 222.402344 Z M 345.742188 223.5 C 336.65625 223.5 333.257812 217.917969 333.257812 210.273438 L 333.257812 176.199219 L 343.15625 176.199219 L 343.15625 211.5625 C 343.15625 214.050781 344.988281 215.148438 347.160156 215.148438 C 352.429688 215.050781 357.488281 213.972656 362.335938 211.90625 L 362.335938 176.199219 L 372.34375 176.199219 L 372.34375 216.304688 C 360.503906 222.789062 351.402344 223.542969 345.742188 223.542969 Z M 345.742188 223.5 "/>
</g>
</svg>
