<?xml version="1.0" encoding="UTF-8"?>
<svg xmlns="http://www.w3.org/2000/svg" xmlns:xlink="http://www.w3.org/1999/xlink" width="50" height="50" viewBox="0 0 375 374.999991" version="1.2">
<defs>
<clipPath id="clip1">
  <path d="M 0 148 L 81 148 L 81 229 L 0 229 Z M 0 148 "/>
</clipPath>
<clipPath id="clip2">
  <path d="M 70.523438 148.183594 L 10.074219 148.183594 C 9.414062 148.183594 8.757812 148.25 8.109375 148.378906 C 7.457031 148.507812 6.828125 148.699219 6.214844 148.953125 C 5.605469 149.207031 5.023438 149.519531 4.472656 149.886719 C 3.921875 150.253906 3.414062 150.675781 2.945312 151.144531 C 2.480469 151.613281 2.0625 152.121094 1.695312 152.671875 C 1.324219 153.226562 1.015625 153.804688 0.761719 154.417969 C 0.511719 155.03125 0.320312 155.664062 0.191406 156.3125 C 0.0625 156.960938 0 157.617188 0 158.28125 L 0 218.78125 C 0 219.445312 0.0664062 220.101562 0.195312 220.75 C 0.324219 221.398438 0.515625 222.03125 0.765625 222.640625 C 1.019531 223.253906 1.332031 223.835938 1.699219 224.386719 C 2.066406 224.933594 2.484375 225.445312 2.949219 225.914062 C 3.417969 226.382812 3.925781 226.800781 4.476562 227.167969 C 5.027344 227.535156 5.609375 227.84375 6.21875 228.097656 C 6.832031 228.351562 7.460938 228.542969 8.109375 228.671875 C 8.757812 228.800781 9.414062 228.867188 10.074219 228.867188 L 70.523438 228.867188 C 71.183594 228.863281 71.835938 228.796875 72.484375 228.664062 C 73.128906 228.53125 73.757812 228.339844 74.363281 228.085938 C 74.972656 227.828125 75.550781 227.519531 76.097656 227.148438 C 76.644531 226.78125 77.152344 226.363281 77.617188 225.894531 C 78.082031 225.425781 78.496094 224.917969 78.863281 224.367188 C 79.226562 223.820312 79.535156 223.238281 79.785156 222.628906 C 80.039062 222.019531 80.226562 221.390625 80.355469 220.742188 C 80.484375 220.097656 80.550781 219.441406 80.550781 218.78125 L 80.550781 158.292969 C 80.550781 157.632812 80.484375 156.980469 80.355469 156.332031 C 80.226562 155.6875 80.039062 155.058594 79.785156 154.449219 C 79.535156 153.835938 79.226562 153.257812 78.863281 152.707031 C 78.496094 152.160156 78.082031 151.648438 77.617188 151.183594 C 77.152344 150.714844 76.644531 150.296875 76.097656 149.929688 C 75.550781 149.558594 74.972656 149.246094 74.363281 148.992188 C 73.757812 148.738281 73.128906 148.546875 72.484375 148.414062 C 71.835938 148.28125 71.183594 148.214844 70.523438 148.210938 Z M 35.058594 209.300781 C 35.054688 209.617188 35.019531 209.929688 34.957031 210.238281 C 34.890625 210.546875 34.796875 210.84375 34.675781 211.136719 C 34.550781 211.425781 34.402344 211.703125 34.226562 211.964844 C 34.050781 212.222656 33.847656 212.464844 33.625 212.6875 C 33.402344 212.910156 33.15625 213.109375 32.894531 213.28125 C 32.632812 213.457031 32.355469 213.601562 32.0625 213.722656 C 31.769531 213.84375 31.472656 213.933594 31.160156 213.996094 C 30.851562 214.054688 30.539062 214.085938 30.226562 214.085938 L 15.34375 214.085938 C 15.027344 214.089844 14.714844 214.058594 14.402344 214 C 14.09375 213.9375 13.789062 213.851562 13.496094 213.730469 C 13.203125 213.613281 12.925781 213.464844 12.660156 213.289062 C 12.398438 213.117188 12.152344 212.917969 11.925781 212.695312 C 11.703125 212.476562 11.5 212.234375 11.320312 211.972656 C 11.144531 211.710938 10.992188 211.433594 10.867188 211.140625 C 10.746094 210.851562 10.652344 210.550781 10.585938 210.238281 C 10.523438 209.929688 10.488281 209.617188 10.484375 209.300781 L 10.484375 163.539062 C 10.484375 163.222656 10.515625 162.90625 10.574219 162.59375 C 10.636719 162.277344 10.730469 161.976562 10.851562 161.679688 C 10.972656 161.386719 11.121094 161.105469 11.300781 160.839844 C 11.476562 160.574219 11.679688 160.328125 11.902344 160.101562 C 12.128906 159.878906 12.375 159.675781 12.640625 159.5 C 12.90625 159.324219 13.1875 159.175781 13.480469 159.054688 C 13.777344 158.933594 14.082031 158.839844 14.394531 158.78125 C 14.707031 158.71875 15.023438 158.6875 15.34375 158.691406 L 30.226562 158.691406 C 30.542969 158.691406 30.855469 158.722656 31.167969 158.785156 C 31.480469 158.847656 31.78125 158.9375 32.074219 159.058594 C 32.367188 159.179688 32.644531 159.328125 32.910156 159.507812 C 33.175781 159.683594 33.417969 159.882812 33.640625 160.109375 C 33.867188 160.332031 34.066406 160.578125 34.242188 160.839844 C 34.417969 161.105469 34.570312 161.382812 34.691406 161.675781 C 34.8125 161.96875 34.902344 162.273438 34.964844 162.585938 C 35.027344 162.894531 35.058594 163.210938 35.058594 163.527344 Z M 70.128906 189.132812 C 70.128906 189.453125 70.097656 189.765625 70.035156 190.078125 C 69.972656 190.390625 69.882812 190.691406 69.761719 190.984375 C 69.640625 191.277344 69.492188 191.558594 69.3125 191.820312 C 69.136719 192.085938 68.9375 192.328125 68.714844 192.554688 C 68.488281 192.777344 68.246094 192.980469 67.980469 193.15625 C 67.71875 193.332031 67.4375 193.480469 67.144531 193.601562 C 66.851562 193.722656 66.550781 193.816406 66.238281 193.878906 C 65.925781 193.941406 65.613281 193.96875 65.296875 193.96875 L 50.375 193.96875 C 50.058594 193.96875 49.742188 193.941406 49.433594 193.878906 C 49.121094 193.816406 48.820312 193.722656 48.527344 193.601562 C 48.230469 193.480469 47.953125 193.332031 47.691406 193.15625 C 47.425781 192.980469 47.183594 192.777344 46.957031 192.554688 C 46.734375 192.328125 46.53125 192.085938 46.355469 191.820312 C 46.179688 191.558594 46.03125 191.277344 45.910156 190.984375 C 45.789062 190.691406 45.695312 190.390625 45.636719 190.078125 C 45.574219 189.765625 45.542969 189.453125 45.542969 189.132812 L 45.542969 163.539062 C 45.542969 163.222656 45.570312 162.90625 45.632812 162.59375 C 45.695312 162.285156 45.785156 161.980469 45.90625 161.6875 C 46.027344 161.390625 46.175781 161.113281 46.351562 160.847656 C 46.527344 160.582031 46.730469 160.335938 46.953125 160.113281 C 47.175781 159.886719 47.421875 159.6875 47.6875 159.507812 C 47.949219 159.332031 48.230469 159.183594 48.523438 159.058594 C 48.816406 158.9375 49.117188 158.847656 49.429688 158.785156 C 49.742188 158.722656 50.058594 158.691406 50.375 158.691406 L 65.296875 158.691406 C 65.613281 158.691406 65.925781 158.722656 66.238281 158.785156 C 66.550781 158.847656 66.851562 158.9375 67.144531 159.058594 C 67.4375 159.179688 67.71875 159.328125 67.980469 159.507812 C 68.246094 159.683594 68.488281 159.882812 68.714844 160.109375 C 68.9375 160.332031 69.136719 160.578125 69.3125 160.839844 C 69.492188 161.105469 69.640625 161.382812 69.761719 161.675781 C 69.882812 161.96875 69.972656 162.273438 70.035156 162.585938 C 70.097656 162.894531 70.128906 163.210938 70.128906 163.527344 Z M 70.128906 189.132812 "/>
</clipPath>
<linearGradient id="linear0" gradientUnits="userSpaceOnUse" x1="31.52" y1="64.54998" x2="31.52" y2="1.499987" gradientTransform="matrix(1.278554,0,0,1.279635,0.0000045,146.265856)">
<stop offset="0" style="stop-color:rgb(100%,72.898865%,28.599548%);stop-opacity:1;"/>
<stop offset="0.125" style="stop-color:rgb(100%,72.898865%,28.599548%);stop-opacity:1;"/>
<stop offset="0.1875" style="stop-color:rgb(99.969482%,72.70813%,28.58429%);stop-opacity:1;"/>
<stop offset="0.195313" style="stop-color:rgb(99.909973%,72.325134%,28.555298%);stop-opacity:1;"/>
<stop offset="0.203125" style="stop-color:rgb(99.850464%,71.937561%,28.52478%);stop-opacity:1;"/>
<stop offset="0.210938" style="stop-color:rgb(99.789429%,71.549988%,28.495789%);stop-opacity:1;"/>
<stop offset="0.21875" style="stop-color:rgb(99.729919%,71.162415%,28.466797%);stop-opacity:1;"/>
<stop offset="0.226563" style="stop-color:rgb(99.67041%,70.773315%,28.436279%);stop-opacity:1;"/>
<stop offset="0.234375" style="stop-color:rgb(99.609375%,70.385742%,28.407288%);stop-opacity:1;"/>
<stop offset="0.242188" style="stop-color:rgb(99.549866%,69.998169%,28.378296%);stop-opacity:1;"/>
<stop offset="0.25" style="stop-color:rgb(99.490356%,69.610596%,28.347778%);stop-opacity:1;"/>
<stop offset="0.257812" style="stop-color:rgb(99.429321%,69.223022%,28.318787%);stop-opacity:1;"/>
<stop offset="0.265625" style="stop-color:rgb(99.369812%,68.835449%,28.289795%);stop-opacity:1;"/>
<stop offset="0.273437" style="stop-color:rgb(99.310303%,68.447876%,28.259277%);stop-opacity:1;"/>
<stop offset="0.28125" style="stop-color:rgb(99.249268%,68.060303%,28.230286%);stop-opacity:1;"/>
<stop offset="0.289062" style="stop-color:rgb(99.189758%,67.671204%,28.201294%);stop-opacity:1;"/>
<stop offset="0.296875" style="stop-color:rgb(99.130249%,67.28363%,28.170776%);stop-opacity:1;"/>
<stop offset="0.304688" style="stop-color:rgb(99.069214%,66.896057%,28.141785%);stop-opacity:1;"/>
<stop offset="0.3125" style="stop-color:rgb(99.009705%,66.508484%,28.111267%);stop-opacity:1;"/>
<stop offset="0.320312" style="stop-color:rgb(98.950195%,66.120911%,28.082275%);stop-opacity:1;"/>
<stop offset="0.328125" style="stop-color:rgb(98.88916%,65.733337%,28.053284%);stop-opacity:1;"/>
<stop offset="0.335938" style="stop-color:rgb(98.829651%,65.345764%,28.022766%);stop-opacity:1;"/>
<stop offset="0.34375" style="stop-color:rgb(98.770142%,64.958191%,27.993774%);stop-opacity:1;"/>
<stop offset="0.351562" style="stop-color:rgb(98.709106%,64.569092%,27.964783%);stop-opacity:1;"/>
<stop offset="0.359375" style="stop-color:rgb(98.649597%,64.181519%,27.934265%);stop-opacity:1;"/>
<stop offset="0.367188" style="stop-color:rgb(98.590088%,63.793945%,27.905273%);stop-opacity:1;"/>
<stop offset="0.375" style="stop-color:rgb(98.529053%,63.406372%,27.876282%);stop-opacity:1;"/>
<stop offset="0.382812" style="stop-color:rgb(98.469543%,63.018799%,27.845764%);stop-opacity:1;"/>
<stop offset="0.390625" style="stop-color:rgb(98.410034%,62.631226%,27.816772%);stop-opacity:1;"/>
<stop offset="0.398438" style="stop-color:rgb(98.348999%,62.243652%,27.787781%);stop-opacity:1;"/>
<stop offset="0.40625" style="stop-color:rgb(98.28949%,61.856079%,27.757263%);stop-opacity:1;"/>
<stop offset="0.414062" style="stop-color:rgb(98.22998%,61.46698%,27.728271%);stop-opacity:1;"/>
<stop offset="0.421875" style="stop-color:rgb(98.168945%,61.079407%,27.697754%);stop-opacity:1;"/>
<stop offset="0.429687" style="stop-color:rgb(98.109436%,60.691833%,27.668762%);stop-opacity:1;"/>
<stop offset="0.4375" style="stop-color:rgb(98.049927%,60.30426%,27.639771%);stop-opacity:1;"/>
<stop offset="0.445312" style="stop-color:rgb(97.988892%,59.916687%,27.609253%);stop-opacity:1;"/>
<stop offset="0.453125" style="stop-color:rgb(97.929382%,59.529114%,27.580261%);stop-opacity:1;"/>
<stop offset="0.460937" style="stop-color:rgb(97.868347%,59.141541%,27.55127%);stop-opacity:1;"/>
<stop offset="0.46875" style="stop-color:rgb(97.808838%,58.753967%,27.520752%);stop-opacity:1;"/>
<stop offset="0.476562" style="stop-color:rgb(97.749329%,58.364868%,27.49176%);stop-opacity:1;"/>
<stop offset="0.484375" style="stop-color:rgb(97.688293%,57.977295%,27.462769%);stop-opacity:1;"/>
<stop offset="0.492187" style="stop-color:rgb(97.628784%,57.589722%,27.432251%);stop-opacity:1;"/>
<stop offset="0.5" style="stop-color:rgb(97.569275%,57.202148%,27.403259%);stop-opacity:1;"/>
<stop offset="0.507812" style="stop-color:rgb(97.50824%,56.814575%,27.374268%);stop-opacity:1;"/>
<stop offset="0.515625" style="stop-color:rgb(97.44873%,56.427002%,27.34375%);stop-opacity:1;"/>
<stop offset="0.523438" style="stop-color:rgb(97.389221%,56.039429%,27.314758%);stop-opacity:1;"/>
<stop offset="0.53125" style="stop-color:rgb(97.328186%,55.651855%,27.285767%);stop-opacity:1;"/>
<stop offset="0.539062" style="stop-color:rgb(97.268677%,55.262756%,27.255249%);stop-opacity:1;"/>
<stop offset="0.546875" style="stop-color:rgb(97.209167%,54.875183%,27.226257%);stop-opacity:1;"/>
<stop offset="0.554688" style="stop-color:rgb(97.148132%,54.48761%,27.19574%);stop-opacity:1;"/>
<stop offset="0.5625" style="stop-color:rgb(97.088623%,54.100037%,27.166748%);stop-opacity:1;"/>
<stop offset="0.570312" style="stop-color:rgb(97.029114%,53.712463%,27.137756%);stop-opacity:1;"/>
<stop offset="0.578125" style="stop-color:rgb(96.968079%,53.32489%,27.107239%);stop-opacity:1;"/>
<stop offset="0.585938" style="stop-color:rgb(96.908569%,52.937317%,27.078247%);stop-opacity:1;"/>
<stop offset="0.59375" style="stop-color:rgb(96.84906%,52.549744%,27.049255%);stop-opacity:1;"/>
<stop offset="0.601562" style="stop-color:rgb(96.788025%,52.160645%,27.018738%);stop-opacity:1;"/>
<stop offset="0.609375" style="stop-color:rgb(96.728516%,51.773071%,26.989746%);stop-opacity:1;"/>
<stop offset="0.617188" style="stop-color:rgb(96.669006%,51.385498%,26.960754%);stop-opacity:1;"/>
<stop offset="0.625" style="stop-color:rgb(96.607971%,50.997925%,26.930237%);stop-opacity:1;"/>
<stop offset="0.632812" style="stop-color:rgb(96.548462%,50.610352%,26.901245%);stop-opacity:1;"/>
<stop offset="0.640625" style="stop-color:rgb(96.488953%,50.222778%,26.872253%);stop-opacity:1;"/>
<stop offset="0.648438" style="stop-color:rgb(96.427917%,49.835205%,26.841736%);stop-opacity:1;"/>
<stop offset="0.65625" style="stop-color:rgb(96.368408%,49.447632%,26.812744%);stop-opacity:1;"/>
<stop offset="0.664062" style="stop-color:rgb(96.308899%,49.058533%,26.782227%);stop-opacity:1;"/>
<stop offset="0.671875" style="stop-color:rgb(96.247864%,48.670959%,26.753235%);stop-opacity:1;"/>
<stop offset="0.679688" style="stop-color:rgb(96.188354%,48.283386%,26.724243%);stop-opacity:1;"/>
<stop offset="0.6875" style="stop-color:rgb(96.128845%,47.895813%,26.693726%);stop-opacity:1;"/>
<stop offset="0.695312" style="stop-color:rgb(96.06781%,47.50824%,26.664734%);stop-opacity:1;"/>
<stop offset="0.703125" style="stop-color:rgb(96.008301%,47.120667%,26.635742%);stop-opacity:1;"/>
<stop offset="0.710938" style="stop-color:rgb(95.948792%,46.733093%,26.605225%);stop-opacity:1;"/>
<stop offset="0.71875" style="stop-color:rgb(95.887756%,46.343994%,26.576233%);stop-opacity:1;"/>
<stop offset="0.726562" style="stop-color:rgb(95.828247%,45.956421%,26.547241%);stop-opacity:1;"/>
<stop offset="0.734375" style="stop-color:rgb(95.768738%,45.568848%,26.516724%);stop-opacity:1;"/>
<stop offset="0.742188" style="stop-color:rgb(95.707703%,45.181274%,26.487732%);stop-opacity:1;"/>
<stop offset="0.75" style="stop-color:rgb(95.648193%,44.793701%,26.45874%);stop-opacity:1;"/>
<stop offset="0.757812" style="stop-color:rgb(95.588684%,44.406128%,26.428223%);stop-opacity:1;"/>
<stop offset="0.765625" style="stop-color:rgb(95.527649%,44.018555%,26.399231%);stop-opacity:1;"/>
<stop offset="0.773438" style="stop-color:rgb(95.46814%,43.630981%,26.368713%);stop-opacity:1;"/>
<stop offset="0.78125" style="stop-color:rgb(95.40863%,43.241882%,26.339722%);stop-opacity:1;"/>
<stop offset="0.789062" style="stop-color:rgb(95.347595%,42.854309%,26.31073%);stop-opacity:1;"/>
<stop offset="0.796875" style="stop-color:rgb(95.288086%,42.466736%,26.280212%);stop-opacity:1;"/>
<stop offset="0.804687" style="stop-color:rgb(95.228577%,42.079163%,26.251221%);stop-opacity:1;"/>
<stop offset="0.8125" style="stop-color:rgb(95.167542%,41.691589%,26.222229%);stop-opacity:1;"/>
<stop offset="0.820312" style="stop-color:rgb(95.108032%,41.304016%,26.191711%);stop-opacity:1;"/>
<stop offset="0.828125" style="stop-color:rgb(95.048523%,40.916443%,26.16272%);stop-opacity:1;"/>
<stop offset="0.835937" style="stop-color:rgb(94.987488%,40.52887%,26.133728%);stop-opacity:1;"/>
<stop offset="0.84375" style="stop-color:rgb(94.927979%,40.139771%,26.10321%);stop-opacity:1;"/>
<stop offset="0.851562" style="stop-color:rgb(94.868469%,39.752197%,26.074219%);stop-opacity:1;"/>
<stop offset="0.859375" style="stop-color:rgb(94.807434%,39.364624%,26.045227%);stop-opacity:1;"/>
<stop offset="0.867188" style="stop-color:rgb(94.747925%,38.977051%,26.014709%);stop-opacity:1;"/>
<stop offset="0.875" style="stop-color:rgb(94.688416%,38.589478%,25.985718%);stop-opacity:1;"/>
<stop offset="0.882812" style="stop-color:rgb(94.62738%,38.201904%,25.9552%);stop-opacity:1;"/>
<stop offset="0.890625" style="stop-color:rgb(94.567871%,37.814331%,25.926208%);stop-opacity:1;"/>
<stop offset="0.898438" style="stop-color:rgb(94.508362%,37.426758%,25.897217%);stop-opacity:1;"/>
<stop offset="0.90625" style="stop-color:rgb(94.447327%,37.037659%,25.866699%);stop-opacity:1;"/>
<stop offset="0.914062" style="stop-color:rgb(94.387817%,36.650085%,25.837708%);stop-opacity:1;"/>
<stop offset="0.921875" style="stop-color:rgb(94.328308%,36.262512%,25.808716%);stop-opacity:1;"/>
<stop offset="0.929688" style="stop-color:rgb(94.267273%,35.874939%,25.778198%);stop-opacity:1;"/>
<stop offset="0.9375" style="stop-color:rgb(94.207764%,35.487366%,25.749207%);stop-opacity:1;"/>
<stop offset="0.945312" style="stop-color:rgb(94.148254%,35.099792%,25.720215%);stop-opacity:1;"/>
<stop offset="0.953125" style="stop-color:rgb(94.087219%,34.712219%,25.689697%);stop-opacity:1;"/>
<stop offset="0.960938" style="stop-color:rgb(94.02771%,34.324646%,25.660706%);stop-opacity:1;"/>
<stop offset="0.96875" style="stop-color:rgb(93.968201%,33.935547%,25.631714%);stop-opacity:1;"/>
<stop offset="0.976562" style="stop-color:rgb(93.907166%,33.547974%,25.601196%);stop-opacity:1;"/>
<stop offset="0.984375" style="stop-color:rgb(93.847656%,33.1604%,25.572205%);stop-opacity:1;"/>
<stop offset="0.992188" style="stop-color:rgb(93.788147%,32.772827%,25.541687%);stop-opacity:1;"/>
<stop offset="1" style="stop-color:rgb(93.728638%,32.388306%,25.512695%);stop-opacity:1;"/>
</linearGradient>
</defs>
<g id="surface1">
<path style=" stroke:none;fill-rule:evenodd;fill:rgb(100%,72.938538%,28.62854%);fill-opacity:1;" d="M 166.390625 152.125 L 166.390625 161.8125 L 141.917969 161.8125 L 141.917969 226.113281 L 131.792969 226.113281 L 131.792969 161.800781 L 111.03125 161.800781 L 111.03125 152.125 Z M 171.328125 169.8125 L 180.789062 169.8125 L 180.789062 179.714844 C 184.046875 173.0625 189.738281 168.328125 200.707031 169.019531 L 200.707031 178.488281 C 188.332031 177.207031 180.789062 180.96875 180.789062 192.894531 L 180.789062 226.167969 L 171.328125 226.167969 Z M 234.792969 227.242188 C 213.75 227.242188 204.53125 215.085938 204.53125 197.808594 C 204.53125 180.789062 213.992188 168.632812 231.085938 168.632812 C 248.410156 168.632812 255.378906 180.6875 255.378906 197.808594 L 255.378906 202.199219 L 214.335938 202.199219 C 215.691406 211.769531 221.878906 217.964844 235.152344 217.964844 C 241.035156 217.957031 246.734375 216.941406 252.257812 214.917969 L 252.257812 223.875 C 247.65625 226.34375 240.546875 227.242188 234.804688 227.242188 Z M 214.210938 193.96875 L 245.597656 193.96875 C 245.035156 183.503906 240.304688 177.527344 230.636719 177.527344 C 220.410156 177.476562 215.21875 184.117188 214.210938 193.90625 Z M 281.945312 226.449219 C 272.714844 226.449219 266.859375 222.058594 266.859375 211.695312 L 266.859375 146.265625 L 276.539062 146.265625 L 276.539062 210.566406 C 276.539062 215.6875 279.914062 217.4375 284.082031 217.4375 C 285.023438 217.453125 285.960938 217.417969 286.894531 217.324219 L 286.894531 225.988281 C 285.257812 226.339844 283.605469 226.488281 281.933594 226.433594 Z M 311.300781 226.449219 C 302.070312 226.449219 296.214844 222.058594 296.214844 211.695312 L 296.214844 146.265625 L 305.894531 146.265625 L 305.894531 210.566406 C 305.894531 215.6875 309.269531 217.4375 313.4375 217.4375 C 314.378906 217.453125 315.316406 217.417969 316.25 217.324219 L 316.25 225.988281 C 314.613281 226.339844 312.960938 226.488281 311.289062 226.433594 Z M 321.660156 197.847656 C 321.660156 180.957031 331.554688 168.671875 348.429688 168.671875 C 365.308594 168.671875 374.988281 180.957031 374.988281 197.847656 C 374.988281 214.738281 365.195312 227.28125 348.429688 227.28125 C 331.667969 227.28125 321.660156 214.738281 321.660156 197.847656 Z M 331.121094 197.847656 C 331.121094 208.546875 336.414062 218.234375 348.445312 218.234375 C 360.476562 218.234375 365.550781 208.546875 365.550781 197.847656 C 365.550781 187.148438 360.4375 177.695312 348.457031 177.695312 C 336.476562 177.695312 331.144531 187.136719 331.144531 197.835938 Z M 331.121094 197.847656 "/>
<g clip-path="url(#clip1)" clip-rule="nonzero">
<g clip-path="url(#clip2)" clip-rule="evenodd">
<path style=" stroke:none;fill-rule:nonzero;fill:url(#linear0);" d="M 0 148.183594 L 0 228.867188 L 80.550781 228.867188 L 80.550781 148.183594 Z M 0 148.183594 "/>
</g>
</g>
</g>
</svg>
