<?xml version="1.0" encoding="UTF-8"?>
<svg xmlns="http://www.w3.org/2000/svg" xmlns:xlink="http://www.w3.org/1999/xlink" width="50" height="50" viewBox="0 0 375 374.999991" version="1.2">
<g id="surface1">
<path style=" stroke:none;fill-rule:nonzero;fill:rgb(100%,72.938538%,28.62854%);fill-opacity:1;" d="M 96.058594 33.664062 L 111.550781 33.664062 L 111.550781 50.648438 L 128.496094 50.648438 L 128.496094 -0.0703125 L 111.550781 -0.0703125 L 111.550781 16.691406 L 96.058594 16.691406 L 96.058594 -0.0703125 L 79.117188 -0.0703125 L 79.117188 50.648438 L 96.058594 50.648438 Z M 96.058594 33.664062 "/>
<path style=" stroke:none;fill-rule:nonzero;fill:rgb(100%,72.938538%,28.62854%);fill-opacity:1;" d="M 150.765625 50.648438 L 167.707031 50.648438 L 167.707031 16.761719 L 182.609375 16.761719 L 182.609375 -0.0703125 L 135.863281 -0.0703125 L 135.863281 16.761719 L 150.765625 16.761719 Z M 150.765625 50.648438 "/>
<path style=" stroke:none;fill-rule:nonzero;fill:rgb(100%,72.938538%,28.62854%);fill-opacity:1;" d="M 206.609375 25.523438 L 218.277344 43.546875 L 218.5625 43.546875 L 230.207031 25.523438 L 230.207031 50.648438 L 247.085938 50.648438 L 247.085938 -0.0703125 L 229.421875 -0.0703125 L 218.5625 17.777344 L 207.703125 -0.0703125 L 190.042969 -0.0703125 L 190.042969 50.648438 L 206.609375 50.648438 Z M 206.609375 25.523438 "/>
<path style=" stroke:none;fill-rule:nonzero;fill:rgb(100%,72.938538%,28.62854%);fill-opacity:1;" d="M 296.273438 33.894531 L 272.453125 33.894531 L 272.453125 -0.0703125 L 255.511719 -0.0703125 L 255.511719 50.648438 L 296.273438 50.648438 Z M 296.273438 33.894531 "/>
<path style=" stroke:none;fill-rule:nonzero;fill:rgb(100%,72.938538%,28.62854%);fill-opacity:1;" d="M 54.707031 72.902344 L 78.933594 344.832031 L 187.6875 375.039062 L 296.527344 344.847656 L 320.796875 72.902344 Z M 268.238281 161.832031 L 140.703125 161.832031 L 143.738281 195.988281 L 265.210938 195.988281 L 256.070312 298.40625 L 187.75 317.347656 L 187.695312 317.363281 L 119.421875 298.40625 L 114.65625 244.835938 L 148.105469 244.835938 L 150.582031 272.625 L 187.703125 282.664062 L 187.757812 282.652344 L 224.90625 272.609375 L 228.777344 229.355469 L 113.28125 229.355469 L 104.277344 128.496094 L 271.214844 128.496094 Z M 268.238281 161.832031 "/>
</g>
</svg>
