<?xml version="1.0" encoding="UTF-8"?>
<svg xmlns="http://www.w3.org/2000/svg" xmlns:xlink="http://www.w3.org/1999/xlink" width="50" height="50" viewBox="0 0 375 374.999991" version="1.2">
<g id="surface1">
<path style=" stroke:none;fill-rule:nonzero;fill:rgb(100%,72.938538%,28.62854%);fill-opacity:1;" d="M 351.214844 0 L 23.820312 0 C 10.671875 0 0 10.671875 0 23.820312 L 0 351.179688 C 0 364.328125 10.671875 375 23.820312 375 L 351.179688 375 C 364.328125 375 375 364.328125 375 351.214844 L 375 23.820312 C 375 10.671875 364.328125 0 351.214844 0 Z M 205.355469 287.351562 C 205.355469 323.03125 184.429688 339.285156 153.878906 339.285156 C 126.253906 339.285156 106.339844 320.765625 98.214844 303.570312 L 126.289062 286.585938 C 131.695312 296.175781 139.925781 303.570312 151.785156 303.570312 C 163.121094 303.570312 169.644531 299.140625 169.644531 281.914062 L 169.644531 169.644531 L 205.355469 169.644531 Z M 282.820312 339.285156 C 251.1875 339.285156 233.222656 323.347656 223.214844 303.570312 L 250 285.714844 C 257.289062 297.640625 265.242188 309.046875 282.050781 309.046875 C 296.175781 309.046875 303.570312 302 303.570312 292.234375 C 303.570312 280.585938 295.898438 276.4375 280.378906 269.636719 L 271.867188 265.972656 C 247.28125 255.511719 230.921875 242.398438 230.921875 214.632812 C 230.921875 189.105469 250.417969 169.644531 280.832031 169.644531 C 302.488281 169.644531 318.046875 177.175781 329.277344 196.917969 L 302.769531 213.972656 C 296.910156 203.472656 290.632812 199.359375 280.832031 199.359375 C 270.855469 199.359375 264.542969 205.707031 264.542969 213.972656 C 264.542969 224.191406 270.855469 228.304688 285.46875 234.652344 L 293.980469 238.316406 C 322.964844 250.699219 339.285156 263.359375 339.285156 291.816406 C 339.285156 322.476562 315.183594 339.285156 282.820312 339.285156 Z M 282.820312 339.285156 "/>
</g>
</svg>
