<?xml version="1.0" encoding="UTF-8"?>
<svg xmlns="http://www.w3.org/2000/svg" xmlns:xlink="http://www.w3.org/1999/xlink" width="375pt" height="374.999991pt" viewBox="0 0 375 374.999991" version="1.2">
<defs>
<clipPath id="clip1">
  <path d="M 32 115.226562 L 66 115.226562 L 66 242 L 32 242 Z M 32 115.226562 "/>
</clipPath>
<clipPath id="clip2">
  <path d="M 0 115.226562 L 34 115.226562 L 34 243 L 0 243 Z M 0 115.226562 "/>
</clipPath>
<clipPath id="clip3">
  <path d="M 30 224 L 39 224 L 39 259.976562 L 30 259.976562 Z M 30 224 "/>
</clipPath>
</defs>
<g id="surface1">
<g clip-path="url(#clip1)" clip-rule="nonzero">
<path style=" stroke:none;fill-rule:nonzero;fill:rgb(87.838745%,69.40918%,36.859131%);fill-opacity:1;" d="M 32.703125 115.773438 L 36.554688 123.027344 C 37.394531 124.339844 38.367188 125.546875 39.464844 126.652344 C 42.691406 129.882812 45.761719 133.269531 48.511719 136.898438 C 55.042969 145.488281 59.449219 155.023438 62.597656 165.351562 C 64.484375 171.660156 65.511719 178.121094 65.589844 184.660156 C 65.90625 204.207031 59.214844 220.992188 45.679688 234.945312 C 43.480469 237.160156 41.121094 239.183594 38.597656 241.015625 C 37.253906 241.015625 36.628906 239.953125 36.078125 239.042969 C 35.015625 237.273438 34.421875 235.339844 34.109375 233.371094 C 33.636719 231.007812 33.320312 228.640625 33.480469 226.195312 L 33.480469 225.09375 C 33.402344 224.855469 32.222656 116.328125 32.691406 115.777344 Z M 32.703125 115.773438 "/>
</g>
<g clip-path="url(#clip2)" clip-rule="nonzero">
<path style=" stroke:none;fill-rule:nonzero;fill:rgb(100%,72.938538%,28.62854%);fill-opacity:1;" d="M 32.703125 115.539062 C 32.542969 115.21875 32.382812 115.460938 32.226562 115.617188 C 32.304688 117.191406 31.753906 118.609375 30.886719 119.953125 C 29.941406 121.296875 28.679688 122.316406 27.421875 123.421875 C 20.417969 129.488281 14.910156 136.820312 10.5 145.015625 C 4.675781 156.050781 1.609375 167.871094 0.746094 180.324219 C 0.359375 184.820312 2.160156 200.660156 3.582031 205.230469 C 7.433594 217.371094 14.359375 227.535156 23.371094 236.359375 C 25.578125 238.484375 27.9375 240.460938 30.375 242.347656 C 31.082031 242.347656 31.164062 241.71875 31.320312 241.246094 C 31.628906 240.238281 31.867188 239.210938 32.027344 238.167969 C 32.734375 234.230469 33.128906 230.289062 33.597656 226.347656 L 32.734375 115.539062 Z M 32.703125 115.539062 "/>
</g>
<g clip-path="url(#clip3)" clip-rule="nonzero">
<path style=" stroke:none;fill-rule:nonzero;fill:rgb(87.838745%,69.40918%,36.859131%);fill-opacity:1;" d="M 36.566406 245.820312 C 36.722656 244.007812 37.625 242.511719 38.53125 241.015625 C 37.589844 240.625 36.878906 239.832031 36.328125 238.960938 C 35.855469 238.171875 35.460938 237.191406 35.148438 236.359375 C 34.042969 233.050781 33.804688 229.582031 33.492188 226.191406 L 33.492188 224.140625 C 33.105469 224.457031 33.019531 227.132812 33.019531 227.53125 C 32.78125 231.15625 32.3125 234.703125 31.605469 238.167969 C 31.371094 239.585938 31.21875 241.007812 30.347656 242.265625 C 30.347656 242.425781 30.347656 242.585938 30.425781 242.820312 C 31.839844 246.996094 32.234375 251.253906 32.476562 255.589844 L 32.476562 257.164062 C 32.476562 259.054688 32.398438 258.660156 33.96875 259.285156 C 34.597656 259.523438 35.3125 259.605469 35.9375 260.078125 C 36.414062 260.078125 36.492188 259.6875 36.492188 259.367188 L 36.253906 256.765625 L 36.253906 249.511719 C 36.175781 248.253906 36.414062 246.988281 36.570312 245.804688 Z M 36.566406 245.820312 "/>
</g>
<path style=" stroke:none;fill-rule:nonzero;fill:rgb(100%,72.938538%,28.62854%);fill-opacity:1;" d="M 96.324219 212.855469 L 96.324219 220.363281 C 96.316406 220.660156 96.332031 220.957031 96.375 221.25 C 96.472656 222.140625 97.015625 222.683594 97.816406 222.929688 C 98.566406 223.128906 99.324219 223.277344 100.089844 223.375 C 100.535156 223.425781 100.683594 223.621094 100.734375 224.097656 C 100.785156 225.777344 100.636719 225.976562 99.007812 225.875 C 95.210938 225.675781 91.410156 225.628906 87.617188 225.875 L 87.253906 225.875 C 86.070312 225.925781 85.972656 225.824219 85.972656 224.640625 C 85.972656 224.441406 86.023438 224.195312 86.023438 223.996094 C 86.023438 223.636719 86.269531 223.457031 86.617188 223.457031 C 87.410156 223.359375 88.144531 223.160156 88.890625 223.011719 C 89.925781 222.765625 90.511719 222.121094 90.613281 221.085938 C 90.757812 219.949219 90.757812 218.765625 90.757812 217.625 L 90.808594 204.390625 C 90.824219 204 90.738281 203.636719 90.539062 203.296875 C 90.34375 202.957031 90.074219 202.695312 89.726562 202.511719 C 88.832031 202.015625 87.894531 201.621094 86.910156 201.328125 C 86.617188 201.230469 86.320312 201.183594 86.074219 201.03125 C 85.351562 200.683594 85.335938 200.046875 86.023438 199.648438 C 86.269531 199.503906 86.566406 199.402344 86.863281 199.351562 C 89.863281 198.90625 92.789062 198.167969 95.636719 197.128906 C 96.230469 196.929688 96.378906 196.984375 96.429688 197.574219 C 96.480469 197.933594 96.429688 198.367188 96.382812 198.707031 C 96.285156 199.351562 96.285156 199.992188 96.285156 200.585938 C 96.285156 200.832031 96.332031 201.082031 96.578125 201.230469 C 96.824219 201.378906 97.074219 201.230469 97.300781 201.085938 C 98.335938 200.289062 99.371094 199.554688 100.503906 198.917969 C 102.128906 198.027344 103.863281 197.238281 105.738281 196.992188 C 108.011719 196.695312 109.976562 197.289062 111.707031 198.769531 C 112.425781 199.414062 113.046875 200.136719 113.578125 200.941406 C 114.074219 201.664062 114.121094 201.683594 114.761719 201.1875 C 116.640625 199.804688 118.609375 198.570312 120.730469 197.679688 C 122.949219 196.742188 125.21875 196.597656 127.488281 197.386719 C 129.804688 198.222656 131.382812 199.855469 132.320312 202.074219 C 133.117188 203.855469 133.453125 205.691406 133.453125 207.605469 L 133.453125 220.839844 C 133.453125 221.726562 133.816406 222.285156 134.6875 222.71875 C 135.628906 223.078125 136.664062 223.261719 137.648438 223.457031 C 138.289062 223.601562 138.289062 223.601562 138.289062 224.253906 C 138.191406 225.878906 138.046875 225.980469 136.464844 225.878906 C 132.503906 225.65625 128.542969 225.65625 124.582031 225.878906 C 123.789062 225.929688 123.789062 225.929688 123.746094 225.140625 L 123.746094 224.894531 C 123.695312 223.554688 123.695312 223.554688 124.976562 223.265625 L 126.257812 222.921875 C 126.707031 222.816406 127.074219 222.582031 127.359375 222.222656 C 127.644531 221.863281 127.789062 221.453125 127.789062 220.996094 L 127.933594 217.289062 L 127.835938 207.613281 C 127.796875 206.742188 127.617188 205.902344 127.296875 205.09375 C 126.0625 202.078125 123.351562 200.996094 120.734375 201.292969 C 118.761719 201.492188 117.035156 202.277344 115.410156 203.417969 C 115.0625 203.664062 114.816406 203.957031 114.867188 204.453125 C 115.3125 207.617188 115.011719 210.777344 115.066406 213.9375 L 115.066406 220.800781 C 115.066406 222.039062 115.558594 222.632812 116.742188 222.925781 L 119.015625 223.421875 C 119.363281 223.472656 119.558594 223.621094 119.558594 224.015625 L 119.558594 224.375 C 119.507812 225.761719 119.414062 225.820312 118.027344 225.808594 C 114.085938 225.609375 110.136719 225.664062 106.242188 225.808594 C 104.90625 225.859375 104.800781 225.710938 104.859375 224.363281 C 104.910156 223.566406 105.003906 223.523438 105.75 223.375 L 107.371094 223.078125 C 108.816406 222.78125 109.347656 222.242188 109.445312 220.707031 L 109.589844 217.398438 L 109.492188 207.472656 C 109.394531 206.234375 109.128906 205.050781 108.453125 203.914062 C 107.46875 202.085938 105.929688 201.152344 103.816406 201.050781 C 101.695312 200.90625 99.824219 201.691406 98.042969 202.675781 C 96.808594 203.398438 96.269531 204.253906 96.367188 205.691406 L 96.367188 212.898438 Z M 189.230469 213.15625 L 189.230469 220.121094 C 189.238281 220.613281 189.273438 221.109375 189.328125 221.601562 C 189.351562 221.9375 189.472656 222.234375 189.691406 222.492188 C 189.910156 222.746094 190.183594 222.914062 190.511719 222.984375 C 191.367188 223.234375 192.238281 223.382812 193.125 223.429688 C 193.621094 223.480469 193.71875 223.675781 193.769531 224.074219 L 193.769531 224.421875 C 193.71875 226.148438 193.523438 226.347656 191.84375 226.25 C 188.089844 226.003906 184.347656 226.050781 180.601562 226.25 L 179.15625 226.300781 C 178.859375 226.300781 178.796875 226.15625 178.714844 225.953125 C 178.566406 225.261719 178.566406 224.570312 178.714844 223.878906 C 178.761719 223.582031 178.957031 223.515625 179.253906 223.433594 C 179.976562 223.335938 180.589844 223.1875 181.273438 223.070312 C 182.507812 222.777344 182.953125 222.277344 183 220.996094 L 183.144531 216.847656 L 183.144531 204.699219 C 183.144531 203.8125 182.796875 203.269531 182.011719 202.871094 C 181.125 202.375 180.183594 202.03125 179.195312 201.6875 C 178.902344 201.589844 178.605469 201.488281 178.359375 201.339844 C 177.71875 200.894531 177.636719 200.253906 178.261719 199.757812 C 178.546875 199.523438 178.878906 199.390625 179.246094 199.363281 C 182.40625 198.867188 185.460938 198.175781 188.421875 196.992188 C 188.765625 196.847656 188.914062 196.941406 189.0625 197.238281 C 189.210938 197.535156 189.261719 197.878906 189.207031 198.222656 L 189.0625 200.542969 C 189.0625 200.839844 188.917969 201.265625 189.160156 201.382812 C 189.457031 201.582031 189.652344 201.136719 189.898438 201.019531 C 191.363281 199.792969 192.957031 198.773438 194.683594 197.960938 C 196.214844 197.238281 197.789062 196.773438 199.566406 196.875 C 202.871094 197.074219 205.238281 198.753906 206.765625 201.667969 C 207.558594 203.199219 207.898438 204.875 208.046875 206.609375 L 208.191406 210.222656 L 208.242188 221.136719 C 208.292969 221.972656 208.589844 222.519531 209.425781 222.816406 C 210.292969 223.105469 211.183594 223.320312 212.089844 223.457031 C 212.882812 223.554688 212.925781 223.703125 212.976562 224.445312 L 212.976562 224.691406 C 212.878906 226.371094 212.777344 226.417969 211.101562 226.316406 C 207.417969 226.121094 203.734375 226.121094 200.054688 226.316406 C 199.558594 226.367188 199.070312 226.316406 198.609375 226.367188 C 198.316406 226.367188 198.117188 226.316406 198.070312 226.019531 C 197.972656 225.378906 197.871094 224.738281 198.019531 224.042969 C 198.070312 223.746094 198.21875 223.601562 198.558594 223.550781 L 200.832031 223.1875 C 201.628906 222.988281 202.066406 222.464844 202.167969 221.742188 L 202.265625 220.359375 L 202.214844 210.039062 C 202.214844 208.851562 202.164062 207.667969 201.917969 206.480469 C 201.328125 203.953125 199.40625 202.144531 196.796875 201.890625 C 194.523438 201.644531 192.464844 202.238281 190.582031 203.472656 C 189.644531 204.0625 189.246094 204.902344 189.246094 205.9375 L 189.246094 213.398438 C 189.246094 213.253906 189.246094 213.253906 189.296875 213.253906 Z M 189.230469 213.15625 "/>
<path style=" stroke:none;fill-rule:nonzero;fill:rgb(87.838745%,69.40918%,36.859131%);fill-opacity:1;" d="M 333.65625 199.179688 C 333.113281 195.570312 331.78125 192.363281 329.464844 189.546875 C 327.410156 187.019531 324.878906 185.144531 321.867188 183.917969 C 318.761719 182.632812 315.453125 182.234375 312.101562 182.140625 C 310.71875 182.089844 291.882812 182.382812 290.5 182.140625 C 290.15625 182.089844 289.910156 182.1875 289.707031 182.484375 C 289.460938 182.847656 289.214844 183.226562 289.066406 183.621094 C 288.472656 184.957031 288.472656 184.855469 289.902344 185.050781 C 291.085938 185.25 292.21875 185.347656 293.355469 185.695312 C 294.390625 186.042969 295.132812 186.632812 295.375 187.769531 C 295.472656 188.3125 295.574219 205.695312 295.574219 213.796875 L 295.375 219.578125 C 295.328125 220.023438 295.28125 220.464844 295.132812 220.859375 C 294.933594 221.453125 294.589844 221.945312 294 222.199219 C 293.339844 222.507812 292.652344 222.6875 291.925781 222.738281 C 290.59375 222.882812 290.398438 222.9375 289.953125 224.421875 L 289.808594 224.960938 C 289.710938 225.605469 289.757812 225.703125 290.402344 225.703125 L 305.144531 225.847656 L 310.917969 225.75 L 314.914062 225.253906 C 319.449219 224.417969 323.496094 222.539062 326.945312 219.527344 C 328.933594 217.765625 330.511719 215.691406 331.679688 213.304688 C 333.0625 210.539062 333.652344 207.523438 333.800781 204.464844 C 334.046875 202.738281 333.945312 200.960938 333.65625 199.179688 Z M 326.503906 206.1875 C 326.304688 209.351562 325.667969 212.410156 324.039062 215.175781 C 321.96875 218.78125 319.007812 221.300781 314.917969 222.1875 C 313.140625 222.546875 311.367188 222.730469 309.503906 222.484375 C 308.167969 222.339844 306.890625 222.1875 305.65625 221.742188 C 303.4375 220.945312 302.648438 219.574219 302.601562 217.40625 L 302.550781 187.628906 C 302.550781 185.851562 303.34375 185.460938 304.621094 185.40625 C 306.546875 185.261719 308.519531 185.308594 310.441406 185.503906 C 312.5 185.703125 314.488281 186.183594 316.410156 186.949219 C 317.839844 187.546875 319.140625 188.351562 320.308594 189.371094 C 322.972656 191.648438 324.746094 194.5 325.722656 197.863281 C 326.515625 200.578125 326.660156 203.34375 326.515625 206.109375 Z M 374.640625 211.03125 C 374.640625 210.734375 374.640625 210.488281 374.589844 210.191406 C 374.148438 207.476562 372.714844 205.402344 370.5 203.820312 C 369.070312 202.785156 367.441406 202.09375 365.765625 201.597656 C 365.46875 201.5 365.222656 201.398438 364.925781 201.351562 C 364.976562 201.109375 365.125 201.058594 365.273438 201.007812 C 366.257812 200.511719 367.199219 199.96875 368.035156 199.226562 C 369.566406 197.945312 370.558594 196.363281 371.089844 194.4375 C 371.386719 193.398438 371.386719 192.363281 371.289062 191.273438 C 371.207031 189.984375 370.851562 188.777344 370.21875 187.652344 C 369.589844 186.527344 368.746094 185.59375 367.6875 184.851562 C 365.414062 183.171875 362.753906 182.480469 359.996094 182.429688 C 354.667969 182.332031 349.296875 182.429688 343.972656 182.429688 C 342.441406 182.429688 340.917969 182.527344 339.335938 182.285156 C 339.039062 182.234375 338.613281 182.140625 338.398438 182.484375 C 338.035156 183.128906 337.605469 183.769531 337.460938 184.507812 C 337.410156 184.855469 337.511719 185.050781 337.902344 185.101562 L 341.304688 185.597656 C 342.640625 185.796875 343.578125 186.535156 343.671875 187.722656 C 343.769531 188.542969 343.816406 189.363281 343.816406 190.191406 L 343.71875 199.421875 L 343.667969 217.695312 C 343.667969 218.777344 343.523438 219.820312 343.324219 220.902344 C 343.273438 221.253906 343.132812 221.566406 342.902344 221.832031 C 342.667969 222.101562 342.382812 222.285156 342.042969 222.386719 C 341.058594 222.683594 340.117188 222.976562 339.082031 222.976562 C 338.796875 222.949219 338.535156 223.015625 338.296875 223.171875 C 338.054688 223.328125 337.890625 223.542969 337.800781 223.816406 C 337.605469 224.261719 337.441406 224.757812 337.359375 225.199219 C 337.261719 225.792969 337.410156 225.996094 338 225.921875 C 338.445312 225.871094 354.71875 226.269531 357.773438 225.972656 C 359.601562 225.773438 361.382812 225.53125 363.199219 224.988281 C 366.300781 224 369.167969 222.566406 371.433594 220.144531 C 373.308594 218.167969 374.394531 215.796875 374.488281 213.03125 C 374.632812 212.390625 374.632812 211.75 374.632812 211.054688 Z M 350.722656 190.792969 L 350.867188 186.84375 C 350.867188 186.101562 351.164062 185.757812 351.90625 185.609375 C 353.089844 185.363281 354.273438 185.464844 355.457031 185.511719 C 356.640625 185.609375 357.773438 185.757812 358.957031 186.101562 C 361.121094 186.746094 362.800781 187.980469 363.789062 190.054688 C 364.246094 191.007812 364.476562 192.011719 364.480469 193.066406 C 364.53125 194.449219 364.429688 195.785156 363.886719 197.113281 C 363.050781 198.941406 361.722656 200.128906 359.796875 200.476562 C 357.871094 200.820312 352.398438 200.675781 351.5625 200.675781 C 350.820312 200.675781 350.769531 200.578125 350.769531 199.835938 L 350.769531 195.183594 C 350.652344 193.738281 350.636719 192.289062 350.71875 190.835938 Z M 366.746094 217.363281 C 365.910156 219.585938 364.378906 221.121094 362.210938 221.953125 C 361.027344 222.394531 359.84375 222.675781 358.601562 222.59375 C 357.070312 222.542969 355.546875 222.59375 354.019531 222.296875 C 351.949219 221.855469 351.007812 219.878906 350.863281 218.445312 C 350.617188 215.925781 350.765625 213.359375 350.71875 211.484375 L 350.71875 204.964844 C 350.71875 204.167969 350.816406 203.925781 351.65625 203.925781 L 356.292969 203.976562 L 359.449219 204.339844 C 361.667969 204.832031 363.691406 205.675781 365.269531 207.398438 C 366.550781 208.785156 367.246094 210.460938 367.390625 212.289062 C 367.535156 214.015625 367.441406 215.695312 366.800781 217.328125 Z M 366.746094 217.363281 "/>
<path style=" stroke:none;fill-rule:nonzero;fill:rgb(100%,72.938538%,28.62854%);fill-opacity:1;" d="M 241.457031 202.484375 L 242.738281 202.683594 C 244.121094 202.734375 245.75 202.238281 246.238281 200.3125 C 246.515625 199.371094 246.515625 198.433594 246.238281 197.492188 C 245.945312 197.492188 245.796875 197.738281 245.648438 197.839844 C 244.90625 198.433594 244.070312 198.78125 243.183594 198.878906 C 241.40625 199.078125 239.632812 198.976562 237.90625 198.335938 L 235.488281 197.496094 C 233.789062 196.941406 232.042969 196.710938 230.257812 196.8125 C 227.742188 197.007812 225.375 197.847656 223.15625 199.035156 C 220.789062 200.316406 219.113281 202.242188 218.320312 204.863281 C 217.875 206.394531 217.824219 207.96875 218.023438 209.554688 C 218.519531 213.160156 220.390625 215.679688 223.742188 217.011719 C 223.941406 217.0625 224.089844 217.15625 224.285156 217.210938 C 224.730469 217.457031 224.78125 217.707031 224.382812 218.050781 L 223.148438 218.886719 L 220.191406 220.714844 C 219.449219 221.160156 219.351562 221.511719 219.597656 222.296875 C 219.898438 223.238281 220.421875 224.027344 221.175781 224.664062 C 221.855469 225.25 222.613281 225.710938 223.445312 226.050781 C 223.984375 226.296875 223.984375 226.410156 223.496094 226.84375 L 220.679688 228.867188 C 219.742188 229.589844 218.804688 230.3125 218.015625 231.238281 C 217.460938 231.835938 217.078125 232.527344 216.871094 233.3125 C 216.660156 234.101562 216.648438 234.890625 216.832031 235.683594 C 217.210938 237.441406 218.0625 238.925781 219.394531 240.128906 C 220.699219 241.335938 222.210938 242.160156 223.929688 242.597656 C 226.691406 243.390625 229.554688 243.4375 232.363281 242.894531 C 236.40625 242.152344 239.941406 240.363281 242.722656 237.3125 C 244.644531 235.289062 245.777344 232.917969 245.878906 230.085938 C 245.90625 229.679688 245.894531 229.273438 245.851562 228.871094 C 245.808594 228.464844 245.726562 228.066406 245.613281 227.675781 C 245.5 227.285156 245.351562 226.90625 245.167969 226.542969 C 244.988281 226.179688 244.777344 225.832031 244.535156 225.503906 C 244.292969 225.175781 244.023438 224.871094 243.730469 224.59375 C 243.433594 224.3125 243.117188 224.0625 242.777344 223.835938 C 242.4375 223.613281 242.082031 223.417969 241.707031 223.257812 C 241.332031 223.097656 240.949219 222.96875 240.550781 222.878906 L 237.890625 222.382812 L 229.753906 221.660156 C 228.863281 221.609375 227.976562 221.460938 227.238281 221.015625 C 226.296875 220.421875 226.054688 219.289062 226.644531 218.546875 C 227.089844 218.003906 227.628906 217.660156 228.324219 217.609375 L 229.898438 217.464844 C 231.460938 217.304688 232.953125 216.898438 234.378906 216.25 C 235.804688 215.597656 237.089844 214.734375 238.230469 213.660156 C 239.476562 212.507812 240.316406 211.105469 240.746094 209.460938 C 241.339844 207.335938 241.339844 205.125 240.84375 202.957031 C 240.699219 202.414062 240.746094 202.363281 241.4375 202.460938 Z M 229.371094 227.082031 C 229.664062 227.132812 229.960938 227.082031 230.257812 227.082031 C 232.328125 227.179688 234.449219 227.328125 236.472656 227.878906 C 237.132812 228.074219 237.773438 228.320312 238.394531 228.621094 C 240.367188 229.703125 241.109375 231.582031 240.859375 233.605469 C 240.5625 235.828125 239.328125 237.40625 237.40625 238.449219 C 236.125 239.171875 234.691406 239.484375 233.210938 239.632812 C 232.671875 239.683594 232.175781 239.632812 231.636719 239.632812 C 229.910156 239.683594 228.234375 239.488281 226.605469 238.796875 C 225.472656 238.351562 224.535156 237.710938 223.695312 236.820312 C 221.972656 235.089844 221.171875 231.929688 223.746094 229.359375 C 225.324219 227.914062 227.101562 226.890625 229.371094 227.082031 Z M 234.992188 211.675781 C 233.957031 214.289062 231.6875 215.082031 229.421875 214.734375 C 227.347656 214.4375 225.820312 213.304688 224.835938 211.425781 C 223.554688 208.90625 223.214844 206.292969 223.949219 203.570312 C 224.492188 201.546875 225.726562 200.015625 227.894531 199.667969 C 230.652344 199.175781 233.304688 200.164062 234.699219 202.929688 C 235.421875 204.265625 235.734375 205.890625 235.734375 208.210938 C 235.683594 209.152344 235.488281 210.433594 234.996094 211.671875 Z M 172.859375 208.3125 C 172.417969 205.644531 171.429688 203.226562 169.605469 201.203125 C 166.890625 198.1875 163.441406 196.863281 159.542969 196.855469 C 156.140625 196.804688 152.941406 197.792969 150.074219 199.570312 C 148.667969 200.414062 147.464844 201.492188 146.46875 202.796875 C 145.46875 204.101562 144.75 205.546875 144.304688 207.128906 C 143.46875 209.992188 143.511719 212.910156 144.160156 215.820312 C 145.886719 223.625 151.90625 226.980469 159.101562 226.488281 C 161.222656 226.34375 163.242188 225.648438 165.164062 224.710938 C 168.023438 223.371094 170.097656 221.25 171.523438 218.4375 C 172.65625 216.117188 173.148438 213.644531 173.101562 210.828125 L 172.855469 208.308594 Z M 165.859375 219.277344 C 165.683594 219.832031 165.429688 220.351562 165.105469 220.835938 C 164.777344 221.316406 164.386719 221.742188 163.9375 222.109375 C 163.484375 222.476562 162.992188 222.773438 162.453125 223 C 161.914062 223.222656 161.359375 223.363281 160.777344 223.425781 C 158.613281 223.722656 156.585938 223.179688 154.761719 221.894531 C 153.429688 220.910156 152.394531 219.675781 151.65625 218.191406 C 149.636719 214.042969 149.289062 209.699219 150.320312 205.253906 C 150.660156 203.847656 151.351562 202.644531 152.390625 201.644531 C 154.21875 199.964844 156.335938 199.570312 158.707031 200.066406 C 160.980469 200.5625 162.703125 201.792969 164.121094 203.671875 C 165.539062 205.550781 166.191406 207.722656 166.585938 209.996094 C 166.785156 211.132812 166.785156 212.316406 166.832031 213.058594 C 166.832031 215.429688 166.632812 217.394531 165.890625 219.28125 Z M 280.609375 208.710938 C 280.25 205.84375 279.183594 203.230469 277.15625 201.058594 C 274.496094 198.144531 271.039062 196.910156 267.199219 196.859375 C 263.890625 196.808594 260.835938 197.746094 258.023438 199.375 C 254.867188 201.253906 252.699219 203.917969 251.863281 207.527344 C 251.363281 209.492188 251.214844 211.488281 251.417969 213.507812 C 251.621094 215.527344 252.164062 217.449219 253.046875 219.277344 C 254.667969 222.734375 257.433594 224.957031 261.085938 225.945312 C 265.125 227.027344 268.976562 226.539062 272.722656 224.710938 C 275.976562 223.128906 278.292969 220.660156 279.625 217.300781 C 280.417969 215.324219 280.707031 213.203125 280.757812 210.730469 C 280.808594 210.285156 280.707031 209.496094 280.613281 208.707031 Z M 273.804688 218.636719 C 273.011719 221.304688 271.339844 223.03125 268.527344 223.429688 C 266.457031 223.726562 264.488281 223.230469 262.707031 222.046875 C 261.179688 221.007812 260.097656 219.625 259.304688 218 C 258.417969 216.269531 257.921875 214.441406 257.730469 212.566406 C 257.433594 210.246094 257.433594 207.976562 257.972656 205.652344 C 258.078125 205.195312 258.226562 204.75 258.417969 204.320312 C 259.800781 200.863281 262.855469 199.28125 266.457031 200.074219 C 268.875 200.617188 270.699219 201.953125 272.082031 203.976562 C 273.414062 205.953125 274.054688 208.125 274.351562 210.480469 C 274.496094 211.421875 274.550781 212.40625 274.496094 213.246094 C 274.496094 215.171875 274.351562 216.949219 273.777344 218.679688 Z M 273.804688 218.636719 "/>
</g>
</svg>
