<?xml version="1.0" encoding="UTF-8"?>
<svg xmlns="http://www.w3.org/2000/svg" xmlns:xlink="http://www.w3.org/1999/xlink" width="50" height="50" viewBox="0 0 375 374.999991" version="1.2">
<g id="surface1">
<path style=" stroke:none;fill-rule:nonzero;fill:rgb(100%,72.938538%,28.62854%);fill-opacity:1;" d="M 257.671875 68.347656 C 255.773438 68.347656 254.03125 69.875 254.03125 71.992188 L 254.03125 138.582031 L 238.957031 129.777344 C 238.015625 129.222656 236.953125 128.949219 235.886719 128.949219 C 234.824219 128.949219 233.757812 129.222656 232.816406 129.777344 L 196.597656 150.933594 C 194.710938 152.023438 193.546875 154.042969 193.546875 156.210938 L 193.546875 198.566406 C 193.546875 200.75 194.710938 202.753906 196.597656 203.84375 L 232.816406 225 C 233.757812 225.558594 234.824219 225.828125 235.886719 225.828125 C 236.953125 225.828125 238.015625 225.558594 238.957031 225 L 275.179688 203.84375 C 277.066406 202.753906 278.226562 200.738281 278.226562 198.566406 L 278.226562 83.257812 C 278.226562 81.101562 277.074219 79.117188 275.226562 78.027344 L 259.464844 68.847656 C 258.875 68.507812 258.277344 68.347656 257.671875 68.347656 Z M 139.113281 128.949219 C 138.050781 128.949219 136.992188 129.226562 136.042969 129.777344 L 99.820312 150.933594 C 97.933594 152.023438 96.773438 154.042969 96.773438 156.210938 L 96.773438 198.566406 C 96.773438 200.75 97.933594 202.753906 99.820312 203.84375 L 136.042969 225 C 137.941406 226.101562 140.285156 226.101562 142.183594 225 L 178.402344 203.84375 C 180.289062 202.753906 181.453125 200.738281 181.453125 198.566406 L 181.453125 156.210938 C 181.453125 154.03125 180.289062 152.023438 178.402344 150.933594 L 142.183594 129.777344 C 141.234375 129.226562 140.175781 128.949219 139.113281 128.949219 Z M 332.660156 128.949219 C 331.597656 128.949219 330.535156 129.222656 329.589844 129.777344 L 293.371094 150.933594 C 291.484375 152.023438 290.324219 154.042969 290.324219 156.210938 L 290.324219 198.566406 C 290.324219 200.75 291.484375 202.753906 293.371094 203.84375 L 328.503906 225.117188 C 330.390625 226.269531 332.757812 226.28125 334.667969 225.164062 L 351.941406 215.109375 C 353.730469 214.078125 353.742188 211.476562 351.941406 210.421875 L 314.515625 188.34375 L 314.515625 166.597656 L 332.660156 156.019531 L 350.804688 166.597656 L 350.804688 181.742188 C 350.804688 183.765625 352.503906 184.078125 353.640625 183.398438 C 358.214844 180.710938 372 172.703125 372 172.703125 C 373.851562 171.625 375 169.632812 375 167.472656 L 375 156.210938 C 375 154.03125 373.839844 152.023438 371.953125 150.933594 L 335.734375 129.777344 C 334.777344 129.222656 333.726562 128.949219 332.660156 128.949219 Z M 42.339844 128.972656 C 41.273438 128.972656 40.210938 129.246094 39.265625 129.800781 L 3.046875 150.933594 C 1.160156 152.035156 0 154.054688 0 156.234375 L 0 210.304688 C 0 212.945312 2.851562 214.582031 5.128906 213.261719 L 21.191406 203.890625 C 23.042969 202.800781 24.195312 200.820312 24.195312 198.664062 L 24.195312 166.644531 L 42.339844 156.046875 L 60.484375 166.644531 L 60.484375 198.664062 C 60.484375 200.820312 61.632812 202.800781 63.484375 203.890625 L 79.550781 213.261719 C 81.824219 214.59375 84.675781 212.945312 84.675781 210.304688 L 84.675781 156.234375 C 84.675781 154.054688 83.515625 152.035156 81.628906 150.933594 L 45.410156 129.800781 C 44.464844 129.246094 43.402344 128.972656 42.339844 128.972656 Z M 235.886719 156.019531 L 254.03125 166.621094 L 254.03125 188.15625 L 235.886719 198.757812 L 217.742188 188.15625 L 217.742188 166.621094 Z M 332.660156 165.320312 L 322.289062 171.378906 L 322.289062 183.472656 L 332.660156 189.503906 L 343.035156 183.472656 L 343.035156 171.378906 Z M 186.367188 213.710938 C 185.121094 213.710938 183.863281 214.015625 182.773438 214.636719 L 148.753906 234.324219 C 146.515625 235.558594 145.160156 237.992188 145.160156 240.523438 L 145.160156 279.851562 C 145.160156 282.382812 146.574219 284.765625 148.753906 286.050781 L 157.707031 291.160156 C 162 293.28125 163.578125 293.292969 165.527344 293.292969 C 171.9375 293.292969 175.59375 289.453125 175.59375 282.667969 L 175.59375 243.8125 C 175.59375 243.21875 175.132812 242.792969 174.601562 242.792969 L 170.300781 242.792969 C 169.707031 242.792969 169.285156 243.277344 169.285156 243.8125 L 169.285156 282.667969 C 169.285156 285.609375 166.175781 288.628906 161.109375 286.097656 L 151.800781 280.726562 C 151.496094 280.542969 151.28125 280.179688 151.28125 279.828125 L 151.28125 240.5 C 151.28125 240.148438 151.449219 239.734375 151.800781 239.550781 L 185.824219 219.910156 C 186.183594 219.730469 186.59375 219.730469 186.886719 219.910156 L 220.929688 239.550781 C 221.28125 239.734375 221.453125 240.085938 221.453125 240.5 L 221.453125 279.828125 C 221.453125 280.238281 221.222656 280.59375 220.929688 280.773438 L 186.886719 300.484375 C 186.582031 300.667969 186.113281 300.667969 185.824219 300.484375 L 177.128906 295.300781 C 176.898438 295.179688 176.53125 295.109375 176.300781 295.230469 C 173.894531 296.648438 173.410156 296.835938 171.175781 297.597656 C 170.582031 297.78125 169.777344 298.144531 171.480469 299.089844 L 182.773438 305.808594 C 183.898438 306.402344 185.132812 306.753906 186.367188 306.753906 C 187.660156 306.753906 188.917969 306.402344 189.910156 305.761719 L 223.933594 286.050781 C 226.171875 284.816406 227.523438 282.382812 227.523438 279.851562 L 227.523438 240.523438 C 227.523438 237.992188 226.109375 235.621094 223.933594 234.324219 L 189.910156 214.636719 C 188.851562 214.015625 187.609375 213.710938 186.367188 213.710938 Z M 239.429688 231.863281 C 235.960938 231.863281 232.910156 234.671875 232.910156 238.394531 C 232.910156 241.992188 235.839844 244.949219 239.429688 244.949219 C 243.023438 244.949219 245.953125 241.992188 245.953125 238.394531 C 245.953125 234.671875 242.964844 231.800781 239.429688 231.863281 Z M 239.359375 232.902344 C 242.433594 232.902344 244.914062 235.328125 244.914062 238.394531 C 244.914062 241.398438 242.421875 243.882812 239.359375 243.953125 C 236.347656 243.953125 233.902344 241.457031 233.902344 238.394531 C 233.902344 235.328125 236.359375 232.902344 239.359375 232.902344 Z M 236.972656 234.679688 L 236.972656 242.035156 L 238.367188 242.035156 L 238.367188 239.101562 L 239.667969 239.101562 C 240.199219 239.101562 240.324219 239.328125 240.445312 239.742188 C 240.445312 239.800781 240.671875 241.710938 240.730469 242.0625 L 242.242188 242.0625 C 242.074219 241.710938 241.949219 240.703125 241.886719 240.097656 C 241.71875 239.152344 241.664062 238.5 240.660156 238.441406 C 241.191406 238.257812 242.078125 237.976562 242.078125 236.617188 C 242.078125 234.667969 240.386719 234.679688 239.5 234.679688 Z M 238.367188 235.859375 L 239.550781 235.859375 C 239.910156 235.859375 240.613281 235.847656 240.613281 236.855469 C 240.613281 237.265625 240.433594 237.933594 239.476562 237.917969 L 238.367188 237.917969 Z M 195.484375 241.871094 C 185.773438 241.871094 180.011719 246.019531 180.011719 252.851562 C 180.011719 260.339844 185.78125 262.339844 195.085938 263.285156 C 206.214844 264.402344 207.085938 266.003906 207.085938 268.183594 C 207.085938 272.011719 204.019531 273.605469 196.832031 273.605469 C 187.820312 273.605469 185.835938 271.367188 185.183594 266.882812 C 185.125 266.410156 184.699219 266.054688 184.167969 266.054688 L 179.75 266.054688 C 179.21875 266.054688 178.757812 266.480469 178.757812 267.074219 C 178.757812 272.792969 181.871094 279.636719 196.761719 279.636719 C 207.683594 279.625 213.867188 275.386719 213.867188 267.949219 C 213.867188 260.582031 208.914062 258.621094 198.4375 257.203125 C 187.84375 255.789062 186.792969 255.074219 186.792969 252.589844 C 186.792969 250.53125 187.660156 247.835938 195.484375 247.835938 C 202.488281 247.835938 205.101562 249.367188 206.164062 254.082031 C 206.285156 254.554688 206.613281 254.839844 207.085938 254.839844 L 211.503906 254.839844 C 211.792969 254.839844 212.042969 254.722656 212.214844 254.554688 C 212.394531 254.324219 212.511719 254.089844 212.449219 253.796875 C 211.746094 245.65625 206.386719 241.871094 195.484375 241.871094 Z M 195.484375 241.871094 "/>
</g>
</svg>
