<?xml version="1.0" encoding="UTF-8"?>
<svg xmlns="http://www.w3.org/2000/svg" xmlns:xlink="http://www.w3.org/1999/xlink" width="375pt" height="374.999991pt" viewBox="0 0 375 374.999991" version="1.2">
<defs>
<clipPath id="clip1">
  <path d="M 38 18 L 333 18 L 333 321.75 L 38 321.75 Z M 38 18 "/>
</clipPath>
<clipPath id="clip2">
  <path d="M 38 329.25 L 336 329.25 L 336 374.25 L 38 374.25 Z M 38 329.25 "/>
</clipPath>
</defs>
<g id="surface1">
<g clip-path="url(#clip1)" clip-rule="nonzero">
<path style=" stroke:none;fill-rule:nonzero;fill:rgb(0%,0%,0%);fill-opacity:1;" d="M 331.921875 200.203125 C 330.148438 194.847656 325.519531 191.113281 319.53125 190.214844 C 316.710938 189.800781 313.476562 189.972656 309.652344 190.769531 C 302.984375 192.140625 298.03125 192.667969 294.417969 192.773438 C 308.050781 169.746094 319.140625 143.492188 325.519531 118.777344 C 335.839844 78.816406 330.320312 60.613281 323.875 52.378906 C 306.832031 30.582031 281.945312 18.871094 251.933594 18.515625 C 235.929688 18.320312 221.867188 21.480469 214.542969 23.753906 C 207.714844 22.550781 200.367188 21.878906 192.675781 21.753906 C 178.234375 21.523438 165.476562 24.671875 154.582031 31.140625 C 148.542969 29.101562 138.859375 26.222656 127.675781 24.386719 C 101.371094 20.066406 80.171875 23.433594 64.664062 34.390625 C 45.886719 47.660156 37.183594 70.714844 38.792969 102.910156 C 39.304688 113.132812 45.019531 144.242188 54.023438 173.730469 C 59.195312 190.6875 64.710938 204.765625 70.417969 215.582031 C 78.507812 230.925781 87.167969 239.957031 96.886719 243.207031 C 102.335938 245.015625 112.234375 246.292969 122.644531 237.621094 C 123.964844 239.210938 125.726562 240.800781 128.0625 242.273438 C 131.03125 244.152344 134.660156 245.683594 138.28125 246.582031 C 151.34375 249.855469 163.574219 249.035156 174.007812 244.464844 C 174.078125 246.316406 174.125 248.09375 174.171875 249.625 C 174.238281 252.113281 174.308594 254.542969 174.402344 256.824219 C 175.011719 272.226562 176.058594 284.207031 179.167969 292.59375 C 179.339844 293.054688 179.570312 293.757812 179.8125 294.492188 C 181.355469 299.238281 183.945312 307.1875 190.535156 313.410156 C 197.363281 319.847656 205.621094 321.820312 213.171875 321.820312 C 216.960938 321.820312 220.578125 321.324219 223.757812 320.644531 C 235.066406 318.226562 247.90625 314.527344 257.199219 301.289062 C 265.984375 288.78125 270.246094 269.945312 271.015625 240.246094 C 271.121094 239.40625 271.210938 238.609375 271.304688 237.839844 C 271.363281 237.332031 271.417969 236.800781 271.488281 236.273438 L 273.5625 236.457031 L 274.089844 236.492188 C 285.605469 237.019531 299.691406 234.578125 308.339844 230.558594 C 315.179688 227.378906 337.082031 215.8125 331.921875 200.203125 "/>
</g>
<path style=" stroke:none;fill-rule:nonzero;fill:rgb(100%,72.938538%,28.62854%);fill-opacity:1;" d="M 312.230469 203.234375 C 277.984375 210.308594 275.621094 198.707031 275.621094 198.707031 C 311.78125 145.023438 326.902344 76.894531 313.855469 60.226562 C 278.273438 14.734375 216.664062 36.25 215.636719 36.804688 L 215.304688 36.867188 C 208.542969 35.460938 200.96875 34.625 192.457031 34.484375 C 176.957031 34.230469 165.210938 38.550781 156.285156 45.316406 C 156.285156 45.316406 46.394531 0.0273438 51.503906 102.273438 C 52.589844 124.027344 82.671875 266.859375 118.546875 223.71875 C 131.660156 207.945312 144.328125 194.605469 144.328125 194.605469 C 150.621094 198.789062 158.152344 200.917969 166.050781 200.160156 L 166.660156 199.628906 C 166.476562 201.585938 166.558594 203.511719 166.914062 205.78125 C 157.667969 216.101562 160.386719 217.921875 141.910156 221.722656 C 123.214844 225.582031 134.195312 232.4375 141.367188 234.234375 C 150.0625 236.410156 170.175781 239.488281 183.761719 220.457031 L 183.222656 222.632812 C 186.835938 225.539062 189.382812 241.503906 188.957031 255.984375 C 188.53125 270.464844 188.242188 280.40625 191.097656 288.171875 C 193.953125 295.933594 196.796875 313.398438 221.085938 308.191406 C 241.375 303.847656 251.902344 292.570312 253.363281 273.757812 C 254.398438 260.394531 256.75 262.367188 256.898438 250.421875 L 258.777344 244.753906 C 260.953125 226.632812 259.121094 220.78125 271.628906 223.5 L 274.667969 223.773438 C 283.867188 224.1875 295.914062 222.289062 302.984375 219.003906 C 318.207031 211.933594 327.234375 200.136719 312.21875 203.234375 L 312.230469 203.234375 "/>
<path style=" stroke:none;fill-rule:nonzero;fill:rgb(100%,100%,100%);fill-opacity:1;" d="M 162.722656 112 C 159.636719 111.570312 156.839844 111.96875 155.421875 113.042969 C 154.628906 113.644531 154.386719 114.339844 154.316406 114.820312 C 154.144531 116.09375 155.03125 117.503906 155.574219 118.226562 C 157.128906 120.285156 159.394531 121.695312 161.628906 122.007812 C 161.964844 122.050781 162.285156 122.074219 162.597656 122.074219 C 166.339844 122.074219 169.738281 119.164062 170.035156 117.015625 C 170.417969 114.324219 166.5 112.53125 162.722656 112 "/>
<path style=" stroke:none;fill-rule:nonzero;fill:rgb(100%,100%,100%);fill-opacity:1;" d="M 264.960938 112.085938 C 264.660156 109.976562 260.917969 109.375 257.347656 109.871094 C 253.800781 110.367188 250.347656 111.972656 250.632812 114.085938 C 250.863281 115.730469 253.835938 118.539062 257.347656 118.539062 C 257.648438 118.539062 257.945312 118.519531 258.246094 118.476562 C 260.582031 118.148438 262.3125 116.660156 263.128906 115.800781 C 264.371094 114.492188 265.085938 113.035156 264.960938 112.085938 "/>
<path style=" stroke:none;fill-rule:nonzero;fill:rgb(100%,100%,100%);fill-opacity:1;" d="M 323.621094 202.4375 C 322.320312 198.488281 318.117188 197.207031 311.125 198.660156 C 290.398438 202.933594 282.96875 199.972656 280.527344 198.175781 C 296.652344 173.617188 309.90625 143.929688 317.054688 116.226562 C 320.453125 103.105469 322.320312 90.917969 322.46875 80.988281 C 322.640625 70.085938 320.789062 62.074219 316.953125 57.179688 C 301.523438 37.453125 278.871094 26.871094 251.453125 26.578125 C 232.601562 26.367188 216.675781 31.195312 213.589844 32.550781 C 207.09375 30.933594 200 29.941406 192.285156 29.8125 C 178.132812 29.585938 165.902344 32.972656 155.78125 39.878906 C 151.375 38.242188 140.007812 34.339844 126.105469 32.097656 C 102.070312 28.226562 82.96875 31.160156 69.339844 40.820312 C 53.078125 52.347656 45.566406 72.953125 47.023438 102.058594 C 47.511719 111.851562 53.089844 141.980469 61.894531 170.828125 C 73.480469 208.808594 86.074219 230.304688 99.328125 234.730469 C 100.878906 235.246094 102.667969 235.605469 104.640625 235.605469 C 109.472656 235.605469 115.402344 233.425781 121.566406 226.007812 C 131.8125 213.683594 141.375 203.347656 144.898438 199.59375 C 150.109375 202.394531 155.835938 203.960938 161.6875 204.109375 C 161.699219 204.269531 161.710938 204.421875 161.722656 204.570312 C 160.546875 205.964844 159.589844 207.183594 158.761719 208.234375 C 154.707031 213.382812 153.867188 214.453125 140.8125 217.136719 C 137.097656 217.910156 127.234375 219.9375 127.089844 226.859375 C 126.933594 234.417969 138.75 237.585938 140.09375 237.917969 C 144.785156 239.09375 149.308594 239.683594 153.613281 239.683594 C 164.105469 239.683594 173.328125 236.238281 180.699219 229.566406 C 180.46875 256.5 181.597656 283.054688 184.820312 291.140625 C 187.472656 297.765625 193.941406 313.941406 214.382812 313.941406 C 217.375 313.941406 220.683594 313.59375 224.308594 312.8125 C 245.636719 308.238281 254.894531 298.8125 258.488281 278.019531 C 260.398438 266.914062 263.691406 240.375 265.234375 226.148438 C 268.507812 227.160156 272.710938 227.632812 277.257812 227.632812 C 286.734375 227.632812 297.675781 225.617188 304.527344 222.425781 C 312.242188 218.855469 326.140625 210.066406 323.621094 202.4375 Z M 272.835938 106.265625 C 272.753906 110.464844 272.179688 114.28125 271.570312 118.261719 C 270.914062 122.542969 270.234375 126.972656 270.0625 132.34375 C 269.886719 137.570312 270.542969 143.007812 271.179688 148.273438 C 272.445312 158.894531 273.757812 169.824219 268.691406 180.621094 C 267.894531 179.214844 267.136719 177.695312 266.445312 176 C 265.8125 174.46875 264.441406 172.015625 262.550781 168.617188 C 255.183594 155.402344 237.933594 124.441406 246.765625 111.808594 C 249.390625 108.050781 256.070312 104.183594 272.835938 106.265625 Z M 252.511719 35.085938 C 277.085938 35.628906 296.511719 44.824219 310.273438 62.414062 C 320.820312 75.902344 309.203125 137.292969 275.566406 190.25 C 275.230469 189.820312 274.898438 189.394531 274.539062 188.957031 C 274.402344 188.785156 274.265625 188.601562 274.113281 188.429688 C 282.808594 174.0625 281.117188 159.859375 279.597656 147.257812 C 278.972656 142.082031 278.386719 137.199219 278.535156 132.617188 C 278.699219 127.753906 279.34375 123.585938 279.953125 119.550781 C 280.722656 114.582031 281.496094 109.441406 281.289062 103.382812 C 281.449219 102.746094 281.507812 101.996094 281.425781 101.101562 C 280.875 95.292969 274.242188 77.898438 260.722656 62.152344 C 253.328125 53.542969 242.550781 43.90625 227.820312 37.40625 C 234.15625 36.09375 242.816406 34.871094 252.511719 35.085938 Z M 115.039062 220.582031 C 108.242188 228.746094 103.550781 227.179688 102.007812 226.675781 C 91.953125 223.308594 80.289062 202.054688 70.003906 168.347656 C 61.105469 139.179688 55.90625 109.855469 55.492188 101.632812 C 54.195312 75.625 60.496094 57.496094 74.226562 47.753906 C 96.570312 31.902344 133.308594 41.390625 148.070312 46.203125 C 147.859375 46.414062 147.636719 46.609375 147.429688 46.824219 C 123.203125 71.296875 123.777344 113.109375 123.839844 115.664062 C 123.835938 116.648438 123.917969 118.046875 124.03125 119.964844 C 124.449219 127 125.226562 140.089844 123.152344 154.917969 C 121.226562 168.683594 125.472656 182.171875 134.796875 191.894531 C 135.761719 192.910156 136.769531 193.855469 137.808594 194.742188 C 133.660156 199.1875 124.640625 209.027344 115.039062 220.582031 Z M 140.921875 186.019531 C 133.410156 178.1875 129.996094 167.265625 131.558594 156.09375 C 133.746094 140.425781 132.9375 126.792969 132.503906 119.464844 C 132.441406 118.4375 132.390625 117.539062 132.359375 116.832031 C 135.898438 113.691406 152.296875 104.902344 163.984375 107.585938 C 169.328125 108.804688 172.578125 112.441406 173.933594 118.695312 C 180.925781 151.070312 174.855469 164.558594 169.984375 175.410156 C 168.972656 177.632812 168.027344 179.753906 167.210938 181.929688 L 166.589844 183.625 C 164.988281 187.898438 163.511719 191.859375 162.59375 195.628906 C 154.601562 195.605469 146.832031 192.195312 140.921875 186.019531 Z M 142.148438 229.691406 C 139.816406 229.105469 137.71875 228.089844 136.488281 227.25 C 137.515625 226.765625 139.347656 226.109375 142.519531 225.453125 C 157.882812 222.296875 160.253906 220.0625 165.425781 213.484375 C 166.621094 211.976562 167.957031 210.257812 169.824219 208.183594 L 169.824219 208.171875 C 172.609375 205.0625 173.878906 205.59375 176.179688 206.550781 C 178.046875 207.320312 179.867188 209.660156 180.601562 212.238281 C 180.949219 213.449219 181.339844 215.765625 180.0625 217.5625 C 169.238281 232.710938 153.472656 232.527344 142.148438 229.691406 Z M 222.53125 304.515625 C 203.738281 308.535156 197.082031 298.949219 192.707031 287.984375 C 189.871094 280.910156 188.480469 248.988281 189.46875 213.738281 C 189.480469 213.277344 189.414062 212.816406 189.285156 212.390625 C 189.171875 211.570312 188.996094 210.742188 188.757812 209.902344 C 187.292969 204.773438 183.722656 200.488281 179.429688 198.703125 C 177.722656 198 174.589844 196.699219 170.835938 197.667969 C 171.644531 194.359375 173.027344 190.628906 174.535156 186.597656 L 175.167969 184.890625 C 175.882812 182.980469 176.769531 180.988281 177.722656 178.890625 C 182.824219 167.542969 189.816406 152.003906 182.226562 116.902344 C 179.382812 103.753906 169.894531 97.332031 155.511719 98.824219 C 146.878906 99.714844 138.988281 103.199219 135.054688 105.195312 C 134.207031 105.621094 133.433594 106.035156 132.710938 106.441406 C 133.808594 93.191406 137.957031 68.433594 153.484375 52.769531 C 163.261719 42.90625 176.273438 38.039062 192.140625 38.300781 C 223.394531 38.8125 243.433594 54.855469 254.742188 68.226562 C 264.496094 79.75 269.769531 91.355469 271.875 97.613281 C 256.042969 96.003906 245.261719 99.128906 239.804688 106.941406 C 227.921875 123.929688 246.300781 156.910156 255.132812 172.75 C 256.753906 175.652344 258.148438 178.164062 258.597656 179.234375 C 261.464844 186.203125 265.195312 190.859375 267.914062 194.269531 C 268.742188 195.304688 269.5625 196.320312 270.171875 197.195312 C 265.371094 198.578125 256.753906 201.78125 257.539062 217.757812 C 256.90625 225.777344 252.402344 263.308594 250.109375 276.578125 C 247.09375 294.101562 240.644531 300.621094 222.53125 304.515625 Z M 300.953125 214.726562 C 296.046875 217.007812 287.835938 218.714844 280.039062 219.082031 C 271.425781 219.484375 267.039062 218.113281 266.015625 217.273438 C 265.53125 207.320312 269.226562 206.273438 273.152344 205.179688 C 273.765625 205.003906 274.375 204.832031 274.949219 204.636719 C 275.308594 204.925781 275.710938 205.210938 276.136719 205.5 C 283.058594 210.074219 295.414062 210.570312 312.835938 206.964844 C 312.90625 206.953125 312.976562 206.941406 313.03125 206.929688 C 310.683594 209.128906 306.664062 212.078125 300.953125 214.726562 Z M 300.953125 214.726562 "/>
<g clip-path="url(#clip2)" clip-rule="nonzero">
<path style=" stroke:none;fill-rule:nonzero;fill:rgb(100%,72.938538%,28.62854%);fill-opacity:1;" d="M 57.175781 347.273438 L 42.757812 347.273438 L 42.757812 332.855469 L 57.957031 332.855469 C 63.523438 332.855469 66.304688 335.296875 66.304688 340.167969 C 66.304688 344.902344 63.261719 347.265625 57.175781 347.265625 M 67.539062 332.6875 C 65.5625 330.929688 62.800781 330.046875 59.246094 330.046875 L 38.597656 330.164062 L 38.597656 364.648438 L 42.757812 364.648438 L 42.71875 349.96875 L 58.082031 349.96875 C 61.9375 349.96875 64.96875 349.089844 67.183594 347.328125 C 69.394531 345.570312 70.496094 343.128906 70.496094 340.007812 C 70.496094 336.886719 69.507812 334.453125 67.527344 332.6875 Z M 94.472656 357.410156 C 94.050781 358.574219 93.390625 359.550781 92.492188 360.34375 C 90.628906 362.152344 87.785156 363.054688 83.960938 363.054688 C 80.507812 363.054688 77.855469 362.175781 76.007812 360.417969 C 74.160156 358.660156 73.234375 356.308594 73.234375 353.367188 C 73.234375 351.832031 73.476562 350.472656 73.960938 349.289062 C 74.445312 348.109375 75.144531 347.097656 76.0625 346.28125 C 77.976562 344.546875 80.609375 343.679688 83.960938 343.679688 C 91.386719 343.679688 95.101562 346.914062 95.101562 353.375 C 95.101562 354.910156 94.890625 356.261719 94.46875 357.421875 M 95.222656 344.699219 C 92.6875 342.402344 88.933594 341.253906 83.960938 341.253906 C 79.265625 341.253906 75.636719 342.425781 73.074219 344.769531 C 70.761719 346.894531 69.609375 349.761719 69.609375 353.367188 C 69.609375 356.953125 70.800781 359.84375 73.1875 362.042969 C 74.503906 363.226562 76.039062 364.082031 77.785156 364.617188 C 79.527344 365.15625 81.59375 365.414062 83.953125 365.414062 C 88.898438 365.414062 92.664062 364.277344 95.25 362.003906 C 97.5625 359.929688 98.71875 357.050781 98.71875 353.367188 C 98.71875 349.660156 97.550781 346.769531 95.214844 344.695312 Z M 126.695312 358.40625 C 126.695312 363.046875 122.511719 365.371094 114.144531 365.371094 C 111.585938 365.371094 109.433594 365.207031 107.679688 364.878906 C 105.929688 364.546875 104.507812 364.019531 103.414062 363.273438 C 102.570312 362.710938 101.902344 361.964844 101.40625 361.050781 C 100.90625 360.136719 100.585938 358.988281 100.4375 357.605469 L 104.332031 357.570312 C 104.332031 359.394531 105.011719 360.742188 106.382812 361.605469 C 107.84375 362.644531 110.433594 363.160156 114.152344 363.160156 C 120 363.160156 122.921875 361.707031 122.921875 358.792969 C 122.921875 357.089844 121.941406 355.910156 119.980469 355.273438 C 119.582031 355.148438 117.21875 354.824219 112.886719 354.292969 C 108.550781 353.761719 105.851562 353.285156 104.785156 352.867188 C 102.476562 351.953125 101.324219 350.308594 101.324219 347.9375 C 101.324219 345.617188 102.351562 343.890625 104.417969 342.753906 C 105.433594 342.285156 106.710938 341.921875 108.238281 341.660156 C 109.769531 341.402344 111.539062 341.273438 113.550781 341.273438 C 121.605469 341.273438 125.632812 343.785156 125.632812 348.808594 L 121.929688 348.808594 C 121.929688 345.277344 119.097656 343.511719 113.4375 343.511719 C 110.558594 343.511719 108.417969 343.863281 107.003906 344.585938 C 105.585938 345.304688 104.878906 346.398438 104.878906 347.890625 C 104.878906 349.273438 105.835938 350.28125 107.75 350.890625 C 108.867188 351.210938 111.4375 351.582031 115.460938 352 C 119.066406 352.320312 121.53125 352.777344 122.871094 353.371094 C 125.429688 354.359375 126.707031 356.039062 126.707031 358.40625 Z M 141.984375 364.6875 L 140.402344 364.910156 L 139.414062 364.984375 C 136.878906 364.984375 135.050781 364.617188 133.929688 363.886719 C 132.808594 363.160156 132.25 361.878906 132.25 360.046875 L 132.25 344.3125 L 127.628906 344.3125 L 127.628906 341.992188 L 132.210938 341.992188 L 132.25 334.554688 L 135.796875 334.554688 L 135.796875 342 L 141.976562 342 L 141.976562 344.351562 L 135.796875 344.3125 L 135.796875 359.625 C 135.796875 360.765625 136.101562 361.554688 136.71875 361.988281 C 137.332031 362.421875 138.414062 362.636719 139.96875 362.636719 C 140.195312 362.664062 140.441406 362.65625 140.714844 362.613281 C 140.988281 362.574219 141.398438 362.480469 141.945312 362.335938 L 141.984375 364.695312 Z M 166.53125 359.476562 C 165.5625 360.265625 164.457031 360.867188 163.214844 361.289062 C 161.976562 361.710938 160.546875 361.917969 158.933594 361.917969 C 151.511719 361.917969 147.800781 358.871094 147.800781 352.777344 C 147.800781 349.9375 148.75 347.71875 150.648438 346.113281 C 152.550781 344.507812 155.222656 343.707031 158.675781 343.707031 C 162.148438 343.707031 164.789062 344.515625 166.585938 346.132812 C 168.386719 347.746094 169.289062 349.914062 169.289062 352.628906 C 169.289062 355.582031 168.367188 357.871094 166.53125 359.476562 M 172.835938 342.015625 L 169.289062 342.015625 L 169.25 345.90625 C 167.6875 344.328125 166.566406 343.328125 165.898438 342.910156 C 163.917969 341.824219 161.339844 341.28125 158.183594 341.28125 C 153.566406 341.28125 150.039062 342.328125 147.601562 344.429688 C 145.292969 346.351562 144.136719 349.140625 144.136719 352.796875 C 144.136719 354.597656 144.429688 356.207031 145.015625 357.625 C 145.597656 359.042969 146.449219 360.25 147.570312 361.234375 C 150.007812 363.257812 153.453125 364.269531 157.90625 364.269531 C 163.253906 364.269531 167.046875 362.816406 169.289062 359.90625 L 169.289062 363.933594 C 169.289062 366.503906 168.472656 368.492188 166.847656 369.898438 C 165.222656 371.304688 162.542969 372.011719 158.816406 372.011719 C 155.316406 372.011719 152.820312 371.53125 151.328125 370.570312 C 150.210938 369.835938 149.441406 368.554688 149.019531 366.738281 L 145.367188 366.738281 C 145.765625 369.277344 146.851562 371.113281 148.609375 372.25 C 150.648438 373.558594 154.089844 374.21875 158.933594 374.21875 C 168.203125 374.21875 172.835938 370.792969 172.835938 363.941406 Z M 192.03125 344.308594 C 190.972656 344.132812 189.972656 344.046875 189.0625 344.046875 C 183.226562 344.046875 180.3125 347.226562 180.3125 353.589844 L 180.3125 364.648438 L 176.800781 364.648438 L 176.761719 342.015625 L 180.3125 342.050781 L 180.3125 346.089844 L 180.5 346.089844 C 181.09375 344.5 182.039062 343.292969 183.328125 342.472656 C 184.742188 341.675781 186.851562 341.277344 189.660156 341.277344 L 192.039062 341.277344 L 192.039062 344.308594 Z M 195.335938 351.902344 C 195.78125 349.328125 196.789062 347.332031 198.351562 345.925781 C 199.371094 345.113281 200.523438 344.5 201.8125 344.089844 C 203.105469 343.683594 204.558594 343.480469 206.171875 343.480469 C 209.324219 343.480469 211.898438 344.339844 213.898438 346.058594 C 215.898438 347.777344 216.898438 349.722656 216.898438 351.894531 L 195.324219 351.894531 M 217.234375 344.910156 C 215.992188 343.675781 214.449219 342.757812 212.613281 342.167969 C 210.773438 341.582031 208.625 341.277344 206.164062 341.277344 C 201.566406 341.277344 197.996094 342.339844 195.460938 344.464844 C 192.925781 346.589844 191.660156 349.480469 191.660156 353.136719 C 191.660156 356.796875 192.878906 359.699219 195.3125 361.847656 C 197.945312 364.21875 201.660156 365.40625 206.457031 365.40625 C 208.367188 365.40625 210.136719 365.191406 211.765625 364.761719 C 213.390625 364.332031 214.816406 363.71875 216.03125 362.933594 C 218.167969 361.40625 219.523438 359.527344 220.09375 357.289062 L 216.257812 357.289062 C 214.941406 361.15625 211.664062 363.089844 206.425781 363.089844 C 202.722656 363.089844 199.878906 362.144531 197.894531 360.253906 C 196.179688 358.628906 195.324219 356.53125 195.324219 353.949219 L 220.628906 353.949219 C 220.628906 350.109375 219.5 347.097656 217.234375 344.917969 Z M 258.125 355.386719 C 258.125 362.109375 252.671875 365.46875 241.769531 365.46875 C 235.238281 365.46875 230.46875 364.3125 227.464844 361.992188 C 225.003906 360.09375 223.777344 357.191406 223.777344 353.289062 L 228.164062 353.289062 C 228.164062 359.5625 232.691406 362.695312 241.769531 362.695312 C 246.117188 362.695312 249.261719 362.054688 251.199219 360.773438 C 252.839844 359.636719 253.660156 357.863281 253.660156 355.441406 C 253.660156 353.050781 252.542969 351.363281 250.304688 350.410156 C 249.035156 349.890625 245.941406 349.234375 241.023438 348.441406 C 234.835938 347.503906 230.824219 346.566406 228.984375 345.628906 C 226.328125 344.246094 224.996094 341.902344 224.996094 338.59375 C 224.996094 335.507812 226.128906 333.214844 228.390625 331.710938 C 230.824219 330.078125 234.996094 329.25 240.910156 329.25 C 251.59375 329.25 256.933594 332.78125 256.933594 339.835938 L 252.507812 339.835938 C 252.507812 334.550781 248.546875 331.90625 240.605469 331.90625 C 236.628906 331.90625 233.71875 332.4375 231.875 333.5 C 230.136719 334.636719 229.265625 336.304688 229.265625 338.503906 C 229.265625 340.800781 230.382812 342.421875 232.621094 343.359375 C 233.8125 343.902344 237.316406 344.65625 243.128906 345.621094 C 248.597656 346.4375 252.289062 347.386719 254.203125 348.472656 C 256.820312 349.808594 258.117188 352.117188 258.117188 355.402344 Z M 293.773438 358.832031 C 292.132812 360.136719 290.277344 361.117188 288.214844 361.769531 C 286.148438 362.425781 283.828125 362.75 281.28125 362.75 C 276.058594 362.75 271.839844 361.34375 268.621094 358.554688 C 265.40625 355.761719 263.792969 352.027344 263.792969 347.375 C 263.792969 342.515625 265.390625 338.726562 268.585938 336.019531 C 271.78125 333.3125 276.015625 331.953125 281.289062 331.953125 C 286.636719 331.953125 290.839844 333.371094 293.898438 336.207031 C 295.511719 337.585938 296.707031 339.199219 297.480469 341.058594 C 298.25 342.914062 298.636719 345.015625 298.636719 347.382812 C 298.636719 352.214844 297.019531 356.035156 293.785156 358.847656 M 296.117188 361.132812 C 298.40625 359.53125 300.097656 357.585938 301.191406 355.296875 C 302.285156 353.007812 302.832031 350.378906 302.832031 347.394531 C 302.832031 342.039062 301.042969 337.746094 297.457031 334.511719 C 295.542969 332.738281 293.230469 331.414062 290.523438 330.550781 C 287.816406 329.6875 284.730469 329.25 281.25 329.25 C 274.492188 329.25 269.183594 330.878906 265.335938 334.136719 C 261.484375 337.394531 259.558594 341.8125 259.558594 347.386719 C 259.558594 352.816406 261.5 357.195312 265.386719 360.527344 C 269.277344 363.855469 274.585938 365.523438 281.320312 365.523438 C 283.953125 365.523438 286.25 365.34375 288.210938 364.992188 C 290.175781 364.636719 291.839844 364.09375 293.207031 363.359375 L 299.6875 367.828125 L 302.394531 365.355469 L 296.117188 361.121094 Z M 335.695312 364.664062 L 305.707031 364.664062 L 305.707031 330.125 L 309.832031 330.050781 L 309.832031 361.761719 L 335.734375 361.761719 L 335.699219 364.644531 Z M 335.695312 364.664062 "/>
</g>
</g>
</svg>
