<?xml version="1.0" encoding="UTF-8"?>
<svg xmlns="http://www.w3.org/2000/svg" xmlns:xlink="http://www.w3.org/1999/xlink" width="375pt" height="374.999991pt" viewBox="0 0 375 374.999991" version="1.2">
<defs>
<clipPath id="clip1">
  <path d="M 26 0 L 339 0 L 339 325.828125 L 26 325.828125 Z M 26 0 "/>
</clipPath>
<clipPath id="clip2">
  <path d="M 26 325.828125 L 349 325.828125 L 349 374.703125 L 26 374.703125 Z M 26 325.828125 "/>
</clipPath>
</defs>
<g id="surface1">
<g clip-path="url(#clip1)" clip-rule="nonzero">
<path style=" stroke:none;fill-rule:nonzero;fill:rgb(49.01886%,12.548828%,12.548828%);fill-opacity:1;" d="M 338.441406 198.386719 C 337.085938 192.246094 331.515625 185.085938 320.28125 185.085938 C 317.988281 185.085938 315.476562 185.375 312.617188 185.96875 C 307.375 187.046875 302.910156 187.574219 298.976562 187.75 C 329.582031 135.617188 349.453125 63.203125 329.777344 38.0625 C 303.851562 4.9375 268.949219 -0.0078125 250.460938 -0.0078125 L 248.71875 0 C 241.839844 0.109375 234.699219 0.957031 227.519531 2.511719 L 200.984375 8.242188 C 197.371094 7.789062 193.691406 7.472656 189.855469 7.40625 L 189.515625 7.40625 L 188.386719 7.398438 C 176.59375 7.398438 165.832031 9.902344 156.242188 14.601562 L 146.980469 10.953125 C 134.242188 5.929688 115.078125 -0.0429688 96.121094 -0.0429688 C 95.054688 -0.0429688 93.996094 -0.0234375 92.929688 0.015625 C 74.253906 0.6875 58.210938 7.777344 46.535156 20.503906 C 31.960938 36.398438 25.324219 59.640625 26.828125 89.601562 C 26.902344 91.152344 45.03125 244.371094 96.414062 244.371094 L 96.601562 244.371094 L 97.074219 244.363281 C 103.746094 244.203125 110.109375 241.519531 116.054688 236.390625 C 120.59375 239.796875 126.464844 241.808594 131.9375 242.609375 C 135.550781 243.460938 142.054688 244.667969 149.84375 244.667969 C 159.351562 244.667969 167.929688 242.71875 175.320312 239.203125 C 175.3125 245.71875 175.273438 253.96875 175.199219 264.515625 L 175.191406 265.070312 L 175.230469 265.625 C 175.949219 276.132812 177.761719 285.605469 180.496094 293.03125 C 188.277344 314.203125 201.71875 325.867188 218.34375 325.867188 C 219.03125 325.867188 219.734375 325.84375 220.445312 325.800781 C 234.117188 324.957031 247.972656 317.277344 257.5 305.273438 C 267.816406 292.277344 270.203125 278.5625 271.121094 268.054688 L 271.179688 267.410156 L 271.179688 236.550781 L 271.941406 236.625 L 275.171875 236.90625 L 275.480469 236.9375 L 275.792969 236.953125 C 276.710938 236.996094 277.660156 237.011719 278.613281 237.011719 C 289.773438 237.011719 303.511719 234.117188 312.796875 229.796875 C 321.675781 225.679688 341.964844 214.367188 338.441406 198.386719 Z M 338.441406 198.386719 "/>
</g>
<path style=" stroke:none;fill-rule:nonzero;fill:rgb(100%,72.938538%,28.62854%);fill-opacity:1;" d="M 256.367188 229.5625 C 256.367188 228.042969 256.457031 226.777344 256.5 225.378906 C 256.425781 223.519531 256.367188 222.15625 256.367188 222.15625 C 256.367188 222.15625 256.457031 222.089844 256.605469 221.992188 C 257.707031 202.199219 263.167969 194.570312 269.007812 190.226562 C 268.195312 189.09375 267.253906 187.871094 266.371094 186.707031 C 263.90625 183.472656 260.832031 179.457031 257.546875 174.3125 L 256.9375 173.140625 C 256.441406 171.925781 255.242188 169.832031 253.71875 167.078125 C 244.957031 151.230469 226.726562 118.261719 239.203125 97.4375 C 244.667969 88.316406 254.917969 83.058594 269.71875 81.761719 C 263.671875 64.558594 241.003906 23.066406 189.609375 22.214844 C 189.59375 22.214844 189.582031 22.214844 189.566406 22.214844 C 144.832031 21.488281 130.132812 62.144531 125.347656 86.433594 C 131.9375 83.640625 139.460938 81.945312 146.347656 81.945312 C 146.453125 81.945312 146.5625 81.945312 146.667969 81.945312 C 163.625 82.070312 175.289062 91.121094 178.679688 106.78125 C 181.160156 118.277344 182.351562 128.332031 182.324219 137.535156 C 182.25 157.671875 178.191406 168.261719 174.609375 177.605469 L 173.46875 180.628906 C 172.550781 183.101562 171.578125 185.40625 170.660156 187.566406 C 169.726562 189.773438 168.90625 191.734375 168.304688 193.503906 C 171.890625 194.320312 174.703125 195.46875 176.636719 196.320312 L 177.753906 196.808594 C 178.101562 196.957031 178.449219 197.125 178.769531 197.320312 C 185.050781 201.140625 188.957031 207.011719 189.796875 213.855469 C 190.246094 217.542969 190.171875 242.683594 190.019531 264.617188 C 190.660156 274.132812 192.277344 282.125 194.410156 287.914062 C 197.4375 296.164062 205.007812 311.914062 219.542969 311.011719 C 229.6875 310.382812 239.441406 304.207031 245.914062 296.058594 C 252.859375 287.316406 255.421875 277.644531 256.382812 266.75 L 256.382812 229.5625 Z M 256.367188 229.5625 "/>
<path style=" stroke:none;fill-rule:nonzero;fill:rgb(100%,72.938538%,28.62854%);fill-opacity:1;" d="M 123.917969 191.921875 C 111.972656 179.457031 106.152344 162.691406 108.339844 147.074219 C 110.449219 132.003906 109.257812 117.253906 108.613281 109.324219 C 108.398438 106.679688 108.257812 104.710938 108.265625 103.621094 C 108.265625 103.5625 108.277344 103.511719 108.285156 103.449219 C 108.285156 103.421875 108.273438 103.398438 108.273438 103.371094 C 109.167969 81 117.792969 45.703125 141.542969 24.726562 C 129.976562 20.171875 111.136719 14.167969 93.453125 14.808594 C 65.742188 15.816406 38.921875 34.980469 41.617188 88.863281 C 42.632812 109.078125 65.476562 230.324219 96.710938 229.5625 C 101.175781 229.449219 105.8125 226.585938 110.574219 220.851562 C 118.105469 211.796875 125.421875 203.585938 130.628906 197.867188 C 128.296875 196.097656 126.042969 194.140625 123.917969 191.921875 Z M 286.160156 86.871094 C 286.269531 88.011719 286.175781 88.988281 285.996094 89.890625 C 286.226562 96.703125 285.492188 103.316406 284.746094 109.714844 C 284.195312 114.425781 283.632812 119.289062 283.480469 124.171875 C 283.324219 128.945312 283.996094 133.664062 284.707031 138.65625 C 286.375 150.339844 288.105469 163.527344 279.042969 178.917969 C 280.710938 181.109375 282.175781 183.144531 283.34375 185.117188 C 317.484375 129.761719 331.242188 63.957031 318.113281 47.1875 C 298.246094 21.800781 270.742188 14.453125 248.957031 14.808594 C 242.136719 14.921875 235.9375 15.839844 230.644531 16.988281 C 268.230469 35.203125 284.976562 74.246094 286.160156 86.871094 Z M 315.609375 200.464844 C 295.875 204.539062 286.382812 202.371094 281.777344 199.535156 C 281.035156 200.066406 280.292969 200.519531 279.605469 200.941406 C 276.851562 202.605469 272.488281 205.257812 271.421875 221.542969 C 272.039062 221.660156 272.578125 221.726562 273.246094 221.867188 L 276.464844 222.15625 C 286.242188 222.601562 299.042969 219.859375 306.554688 216.371094 C 322.734375 208.863281 331.554688 197.179688 315.609375 200.464844 Z M 175.082031 215.632812 C 174.808594 213.425781 173.613281 211.640625 171.4375 210.210938 L 170.636719 209.863281 C 167.964844 208.6875 164.9375 207.347656 160.101562 207.347656 L 160.070312 207.347656 C 159.128906 207.421875 158.199219 207.488281 157.257812 207.488281 C 156.871094 207.488281 156.496094 207.433594 156.109375 207.421875 C 152.597656 210.121094 147.609375 212.210938 135.257812 214.75 C 113.1875 220.371094 126.214844 227.007812 134.679688 228.035156 C 142.867188 230.085938 162.335938 232.582031 175.265625 222.046875 C 175.230469 218.726562 175.171875 216.445312 175.082031 215.632812 Z M 175.082031 215.632812 "/>
<path style=" stroke:none;fill-rule:nonzero;fill:rgb(100%,72.938538%,28.62854%);fill-opacity:1;" d="M 165.144531 114.789062 C 162.980469 117.023438 159.566406 118.980469 155.796875 118.371094 C 149.667969 117.378906 144.964844 109.980469 145.304688 107.207031 C 145.632812 104.4375 150.867188 102.992188 156.992188 103.984375 C 159.117188 104.332031 161.046875 104.933594 162.675781 105.671875 C 160.308594 100.578125 156.019531 97.636719 149.480469 96.917969 C 137.890625 95.632812 125.59375 101.6875 123.117188 105.042969 C 123.171875 105.859375 123.265625 106.902344 123.363281 108.132812 C 124.050781 116.625 125.324219 132.449219 122.992188 149.132812 C 121.453125 160.128906 125.902344 172.601562 134.597656 181.679688 C 140.203125 187.53125 146.75 191.230469 153.207031 192.328125 C 154.027344 188.789062 155.496094 185.335938 157.003906 181.777344 C 157.84375 179.8125 158.730469 177.726562 159.566406 175.464844 L 160.765625 172.304688 C 164.046875 163.75 167.433594 154.902344 167.5 137.476562 C 167.527344 130.777344 166.707031 123.125 165.144531 114.789062 Z M 270.046875 140.75 C 269.277344 135.351562 268.484375 129.761719 268.675781 123.695312 C 268.847656 118.203125 269.453125 113.019531 270.039062 108.003906 C 270.496094 104.058594 270.851562 100.265625 271.058594 96.527344 C 261.515625 97.320312 255.175781 100.074219 252.167969 104.730469 C 253.414062 104.308594 254.820312 103.976562 256.375 103.777344 C 262.980469 102.917969 267.800781 104.820312 268.359375 108.492188 C 268.765625 111.183594 266.484375 113.714844 265.484375 114.683594 C 263.433594 116.675781 260.847656 117.957031 258.21875 118.296875 C 257.746094 118.359375 257.265625 118.386719 256.796875 118.386719 C 254.183594 118.386719 251.6875 117.492188 249.769531 116.164062 C 250.601562 130.777344 261.375 150.320312 266.675781 159.90625 C 267.808594 161.960938 268.683594 163.597656 269.410156 165.003906 C 272.320312 156.714844 271.246094 149.164062 270.046875 140.75 Z M 270.046875 140.75 "/>
<g clip-path="url(#clip2)" clip-rule="nonzero">
<path style=" stroke:none;fill-rule:nonzero;fill:rgb(100%,72.938538%,28.62854%);fill-opacity:1;" d="M 46.347656 345.402344 L 30.691406 345.402344 L 30.691406 329.742188 L 47.195312 329.742188 C 53.238281 329.742188 56.261719 332.394531 56.261719 337.6875 C 56.261719 342.824219 52.957031 345.394531 46.347656 345.394531 M 57.601562 329.5625 C 55.457031 327.648438 52.453125 326.695312 48.597656 326.695312 L 26.171875 326.816406 L 26.171875 364.273438 L 30.691406 364.273438 L 30.648438 348.328125 L 47.332031 348.328125 C 51.515625 348.328125 54.8125 347.375 57.214844 345.464844 C 59.617188 343.554688 60.8125 340.902344 60.8125 337.511719 C 60.8125 334.121094 59.738281 331.480469 57.585938 329.5625 Z M 86.847656 356.414062 C 86.390625 357.675781 85.675781 358.738281 84.699219 359.597656 C 82.675781 361.5625 79.585938 362.542969 75.433594 362.542969 C 71.683594 362.542969 68.804688 361.589844 66.796875 359.679688 C 64.789062 357.769531 63.785156 355.214844 63.785156 352.023438 C 63.785156 350.355469 64.046875 348.875 64.574219 347.59375 C 65.097656 346.3125 65.859375 345.214844 66.859375 344.324219 C 68.933594 342.441406 71.792969 341.5 75.433594 341.5 C 83.5 341.5 87.53125 345.011719 87.53125 352.03125 C 87.53125 353.695312 87.300781 355.164062 86.84375 356.425781 M 87.664062 342.609375 C 84.910156 340.113281 80.832031 338.863281 75.4375 338.863281 C 70.332031 338.863281 66.394531 340.140625 63.613281 342.683594 C 61.101562 344.992188 59.847656 348.105469 59.847656 352.023438 C 59.847656 355.914062 61.140625 359.054688 63.734375 361.441406 C 65.164062 362.730469 66.832031 363.65625 68.726562 364.238281 C 70.621094 364.824219 72.863281 365.105469 75.425781 365.105469 C 80.796875 365.105469 84.886719 363.871094 87.695312 361.402344 C 90.203125 359.148438 91.460938 356.023438 91.460938 352.019531 C 91.460938 347.996094 90.191406 344.855469 87.652344 342.601562 Z M 121.839844 357.496094 C 121.839844 362.535156 117.296875 365.058594 108.210938 365.058594 C 105.433594 365.058594 103.09375 364.882812 101.191406 364.523438 C 99.289062 364.164062 97.746094 363.589844 96.558594 362.78125 C 95.644531 362.171875 94.917969 361.359375 94.375 360.367188 C 93.835938 359.375 93.488281 358.125 93.328125 356.625 L 97.554688 356.585938 C 97.554688 358.566406 98.292969 360.03125 99.78125 360.96875 C 101.367188 362.097656 104.183594 362.660156 108.21875 362.660156 C 114.566406 362.660156 117.742188 361.078125 117.742188 357.914062 C 117.742188 356.0625 116.679688 354.78125 114.546875 354.089844 C 114.117188 353.957031 111.546875 353.601562 106.84375 353.027344 C 102.140625 352.449219 99.207031 351.933594 98.046875 351.476562 C 95.539062 350.484375 94.285156 348.699219 94.285156 346.125 C 94.285156 343.605469 95.40625 341.726562 97.648438 340.492188 C 98.753906 339.984375 100.136719 339.589844 101.796875 339.308594 C 103.457031 339.027344 105.382812 338.882812 107.566406 338.882812 C 116.3125 338.882812 120.6875 341.613281 120.6875 347.070312 L 116.667969 347.070312 C 116.667969 343.234375 113.589844 341.316406 107.445312 341.316406 C 104.316406 341.316406 101.992188 341.699219 100.457031 342.480469 C 98.917969 343.265625 98.152344 344.453125 98.152344 346.070312 C 98.152344 347.574219 99.1875 348.667969 101.265625 349.328125 C 102.480469 349.679688 105.269531 350.082031 109.640625 350.535156 C 113.554688 350.886719 116.234375 351.378906 117.6875 352.023438 C 120.464844 353.097656 121.855469 354.921875 121.855469 357.496094 Z M 138.445312 364.316406 L 136.722656 364.558594 L 135.652344 364.636719 C 132.898438 364.636719 130.914062 364.242188 129.695312 363.449219 C 128.480469 362.65625 127.871094 361.265625 127.871094 359.277344 L 127.871094 342.1875 L 122.855469 342.1875 L 122.855469 339.667969 L 127.832031 339.667969 L 127.871094 331.589844 L 131.722656 331.589844 L 131.722656 339.675781 L 138.433594 339.675781 L 138.433594 342.230469 L 131.722656 342.1875 L 131.722656 358.820312 C 131.722656 360.058594 132.054688 360.910156 132.722656 361.382812 C 133.390625 361.855469 134.5625 362.089844 136.253906 362.089844 C 136.5 362.117188 136.769531 362.109375 137.066406 362.0625 C 137.363281 362.019531 137.808594 361.917969 138.402344 361.761719 L 138.441406 364.328125 Z M 165.097656 358.65625 C 164.046875 359.511719 162.847656 360.167969 161.5 360.625 C 160.152344 361.082031 158.601562 361.308594 156.851562 361.308594 C 148.789062 361.308594 144.757812 358 144.757812 351.378906 C 144.757812 348.296875 145.789062 345.882812 147.851562 344.144531 C 149.917969 342.402344 152.820312 341.53125 156.566406 341.53125 C 160.339844 341.53125 163.207031 342.40625 165.160156 344.164062 C 167.113281 345.917969 168.09375 348.269531 168.09375 351.21875 C 168.09375 354.425781 167.09375 356.914062 165.097656 358.65625 M 171.945312 339.695312 L 168.09375 339.695312 L 168.050781 343.917969 C 166.351562 342.203125 165.136719 341.117188 164.410156 340.664062 C 162.261719 339.484375 159.460938 338.894531 156.035156 338.894531 C 151.019531 338.894531 147.1875 340.035156 144.542969 342.3125 C 142.035156 344.402344 140.78125 347.433594 140.78125 351.398438 C 140.78125 353.355469 141.097656 355.105469 141.734375 356.644531 C 142.367188 358.1875 143.292969 359.496094 144.507812 360.566406 C 147.15625 362.765625 150.898438 363.863281 155.734375 363.863281 C 161.542969 363.863281 165.660156 362.285156 168.09375 359.125 L 168.09375 363.5 C 168.09375 366.289062 167.210938 368.449219 165.441406 369.976562 C 163.675781 371.503906 160.769531 372.269531 156.722656 372.269531 C 152.917969 372.269531 150.210938 371.746094 148.589844 370.707031 C 147.378906 369.90625 146.539062 368.515625 146.082031 366.542969 L 142.117188 366.542969 C 142.550781 369.300781 143.730469 371.296875 145.636719 372.527344 C 147.851562 373.949219 151.585938 374.667969 156.851562 374.667969 C 166.914062 374.667969 171.945312 370.945312 171.945312 363.507812 L 171.945312 339.691406 Z M 192.789062 342.179688 C 191.640625 341.992188 190.554688 341.898438 189.566406 341.898438 C 183.230469 341.898438 180.066406 345.355469 180.066406 352.261719 L 180.066406 364.273438 L 176.25 364.273438 L 176.210938 339.695312 L 180.066406 339.730469 L 180.066406 344.117188 L 180.265625 344.117188 C 180.914062 342.390625 181.9375 341.078125 183.339844 340.1875 C 184.875 339.324219 187.167969 338.890625 190.214844 338.890625 L 192.800781 338.890625 L 192.800781 342.179688 Z M 196.378906 350.429688 C 196.863281 347.636719 197.957031 345.464844 199.652344 343.941406 C 200.757812 343.054688 202.011719 342.386719 203.414062 341.945312 C 204.816406 341.503906 206.394531 341.28125 208.144531 341.28125 C 211.570312 341.28125 214.367188 342.214844 216.539062 344.082031 C 218.707031 345.949219 219.792969 348.066406 219.792969 350.421875 L 196.367188 350.421875 M 220.160156 342.835938 C 218.808594 341.492188 217.136719 340.496094 215.140625 339.859375 C 213.140625 339.222656 210.808594 338.890625 208.136719 338.890625 C 203.144531 338.890625 199.269531 340.042969 196.515625 342.351562 C 193.761719 344.660156 192.386719 347.800781 192.386719 351.773438 C 192.386719 355.746094 193.710938 358.898438 196.351562 361.230469 C 199.210938 363.808594 203.246094 365.097656 208.453125 365.097656 C 210.53125 365.097656 212.453125 364.863281 214.21875 364.394531 C 215.984375 363.929688 217.53125 363.265625 218.851562 362.410156 C 221.171875 360.753906 222.640625 358.710938 223.265625 356.277344 L 219.097656 356.277344 C 217.667969 360.480469 214.109375 362.582031 208.417969 362.582031 C 204.402344 362.582031 201.3125 361.554688 199.15625 359.5 C 197.296875 357.738281 196.367188 355.457031 196.367188 352.652344 L 223.84375 352.652344 C 223.84375 348.484375 222.617188 345.210938 220.160156 342.84375 Z M 264.5625 354.214844 C 264.5625 361.515625 258.640625 365.164062 246.800781 365.164062 C 239.707031 365.164062 234.53125 363.90625 231.269531 361.390625 C 228.597656 359.324219 227.261719 356.175781 227.261719 351.9375 L 232.027344 351.9375 C 232.027344 358.75 236.945312 362.15625 246.800781 362.15625 C 251.523438 362.15625 254.9375 361.457031 257.042969 360.0625 C 258.820312 358.832031 259.710938 356.902344 259.710938 354.277344 C 259.710938 351.675781 258.5 349.847656 256.070312 348.808594 C 254.691406 348.246094 251.332031 347.535156 245.992188 346.667969 C 239.273438 345.652344 234.914062 344.632812 232.917969 343.613281 C 230.03125 342.113281 228.589844 339.566406 228.589844 335.976562 C 228.589844 332.625 229.816406 330.132812 232.273438 328.5 C 234.914062 326.726562 239.445312 325.828125 245.867188 325.828125 C 257.46875 325.828125 263.269531 329.660156 263.269531 337.324219 L 258.460938 337.324219 C 258.460938 331.585938 254.160156 328.714844 245.539062 328.714844 C 241.21875 328.714844 238.058594 329.292969 236.058594 330.445312 C 234.167969 331.679688 233.222656 333.492188 233.222656 335.878906 C 233.222656 338.375 234.4375 340.132812 236.867188 341.152344 C 238.160156 341.742188 241.96875 342.558594 248.28125 343.609375 C 254.21875 344.492188 258.222656 345.527344 260.300781 346.707031 C 263.144531 348.15625 264.550781 350.664062 264.550781 354.234375 Z M 303.273438 357.957031 C 301.492188 359.375 299.480469 360.4375 297.238281 361.148438 C 294.992188 361.859375 292.472656 362.214844 289.710938 362.214844 C 284.039062 362.214844 279.453125 360.6875 275.960938 357.652344 C 272.46875 354.621094 270.71875 350.566406 270.71875 345.511719 C 270.71875 340.238281 272.449219 336.117188 275.921875 333.179688 C 279.394531 330.242188 283.992188 328.761719 289.714844 328.761719 C 295.523438 328.761719 300.085938 330.300781 303.410156 333.382812 C 305.164062 334.882812 306.460938 336.636719 307.296875 338.652344 C 308.136719 340.667969 308.554688 342.949219 308.554688 345.519531 C 308.554688 350.769531 306.796875 354.917969 303.285156 357.972656 M 305.820312 360.457031 C 308.304688 358.714844 310.140625 356.605469 311.328125 354.117188 C 312.515625 351.628906 313.113281 348.777344 313.113281 345.535156 C 313.113281 339.71875 311.167969 335.054688 307.273438 331.542969 C 305.195312 329.613281 302.6875 328.179688 299.746094 327.242188 C 296.804688 326.304688 293.453125 325.828125 289.675781 325.828125 C 282.335938 325.828125 276.574219 327.597656 272.390625 331.136719 C 268.210938 334.675781 266.117188 339.472656 266.117188 345.527344 C 266.117188 351.421875 268.226562 356.179688 272.449219 359.796875 C 276.671875 363.414062 282.441406 365.222656 289.75 365.222656 C 292.609375 365.222656 295.105469 365.03125 297.234375 364.644531 C 299.367188 364.261719 301.175781 363.671875 302.65625 362.875 L 309.699219 367.726562 L 312.636719 365.042969 L 305.820312 360.445312 Z M 348.796875 364.289062 L 316.234375 364.289062 L 316.234375 326.777344 L 320.710938 326.695312 L 320.710938 361.136719 L 348.839844 361.136719 L 348.800781 364.265625 Z M 348.796875 364.289062 "/>
</g>
</g>
</svg>
