<?xml version="1.0" encoding="UTF-8"?>
<svg xmlns="http://www.w3.org/2000/svg" xmlns:xlink="http://www.w3.org/1999/xlink" width="375pt" height="374.999991pt" viewBox="0 0 375 374.999991" version="1.2">
<defs>
<clipPath id="clip1">
  <path d="M 6 127 L 215 127 L 215 258.1875 L 6 258.1875 Z M 6 127 "/>
</clipPath>
<clipPath id="clip2">
  <path d="M 108 117.1875 L 120 117.1875 L 120 124 L 108 124 Z M 108 117.1875 "/>
</clipPath>
<clipPath id="clip3">
  <path d="M 120 185 L 182 185 L 182 258.1875 L 120 258.1875 Z M 120 185 "/>
</clipPath>
<clipPath id="clip4">
  <path d="M 275 186 L 321 186 L 321 258.1875 L 275 258.1875 Z M 275 186 "/>
</clipPath>
<clipPath id="clip5">
  <path d="M 247 186 L 268 186 L 268 258.1875 L 247 258.1875 Z M 247 186 "/>
</clipPath>
<clipPath id="clip6">
  <path d="M 185 186 L 240 186 L 240 258.1875 L 185 258.1875 Z M 185 186 "/>
</clipPath>
<clipPath id="clip7">
  <path d="M 325 186 L 375 186 L 375 258.1875 L 325 258.1875 Z M 325 186 "/>
</clipPath>
</defs>
<g id="surface1">
<path style=" stroke:none;fill-rule:nonzero;fill:rgb(100%,72.938538%,28.62854%);fill-opacity:1;" d="M 88.5625 201.050781 C 87.328125 204.796875 86.484375 208.554688 85.71875 212.191406 L 93.390625 218.660156 C 93.765625 214.710938 94.4375 210.765625 95.375 206.816406 Z M 88.5625 201.050781 "/>
<path style=" stroke:none;fill-rule:nonzero;fill:rgb(100%,72.938538%,28.62854%);fill-opacity:1;" d="M 84.296875 237.929688 C 84.484375 243.304688 84.953125 247.660156 85.4375 250.699219 L 96.796875 255.054688 C 95.9375 251.105469 95.09375 246.640625 94.53125 241.878906 Z M 84.296875 237.929688 "/>
<g clip-path="url(#clip1)" clip-rule="nonzero">
<path style=" stroke:none;fill-rule:nonzero;fill:rgb(100%,72.938538%,28.62854%);fill-opacity:1;" d="M 7.328125 253.222656 C 6.796875 256.339844 6.625 258.171875 6.625 258.171875 L 6.640625 258.1875 L 81.46875 258.1875 C 81.46875 258.1875 67.171875 188.40625 114.53125 160.128906 C 124.859375 154.757812 157.734375 134.703125 211.515625 177.238281 C 213.21875 175.71875 214.828125 174.496094 214.828125 174.496094 C 214.828125 174.496094 165.5625 121.933594 110.71875 127.792969 C 83.0625 130.425781 49.15625 157.277344 29.265625 192.714844 C 14.140625 219.648438 8.953125 243.335938 7.328125 253.222656 Z M 7.328125 253.222656 "/>
</g>
<path style=" stroke:none;fill-rule:nonzero;fill:rgb(100%,72.938538%,28.62854%);fill-opacity:1;" d="M 44.234375 164.078125 L 37.515625 157.796875 C 35.046875 160.332031 32.6875 162.855469 30.515625 165.394531 L 37.8125 172.066406 C 39.796875 169.324219 41.984375 166.601562 44.25 164.0625 Z M 44.234375 164.078125 "/>
<path style=" stroke:none;fill-rule:nonzero;fill:rgb(100%,72.938538%,28.62854%);fill-opacity:1;" d="M 109.609375 179.699219 L 105.34375 172.804688 C 103.171875 174.933594 101.171875 177.253906 99.46875 179.585938 L 104.015625 186.871094 C 105.625 184.335938 107.515625 182 109.609375 179.699219 Z M 109.609375 179.699219 "/>
<g clip-path="url(#clip2)" clip-rule="nonzero">
<path style=" stroke:none;fill-rule:nonzero;fill:rgb(100%,72.938538%,28.62854%);fill-opacity:1;" d="M 119.453125 123.359375 L 117.5625 117.1875 C 114.625 117.1875 111.59375 117.390625 108.46875 117.796875 L 110.265625 123.765625 C 113.015625 123.46875 115.765625 123.359375 118.5 123.359375 Z M 119.453125 123.359375 "/>
</g>
<path style=" stroke:none;fill-rule:nonzero;fill:rgb(100%,72.938538%,28.62854%);fill-opacity:1;" d="M 75.765625 127.011719 C 73.390625 128.328125 70.9375 129.753906 68.375 131.351562 L 72.734375 138.445312 C 75.203125 136.832031 77.5625 135.3125 80.03125 133.996094 Z M 75.765625 127.011719 "/>
<path style=" stroke:none;fill-rule:nonzero;fill:rgb(100%,72.938538%,28.62854%);fill-opacity:1;" d="M 15.625 209.355469 L 4.734375 205.09375 C 2.9375 209.449219 0.953125 214.523438 0 217.25 L 10.890625 221.496094 C 12.125 218.050781 14.109375 213.097656 15.625 209.355469 Z M 15.625 209.355469 "/>
<g clip-path="url(#clip3)" clip-rule="nonzero">
<path style=" stroke:none;fill-rule:nonzero;fill:rgb(100%,72.938538%,28.62854%);fill-opacity:1;" d="M 120.78125 258.1875 L 138.96875 258.1875 L 138.96875 240.765625 L 154.6875 258.1875 L 181.578125 258.1875 L 160.453125 235.40625 L 160.453125 235.390625 C 160.453125 235.390625 177.03125 233.886719 177.03125 210.984375 C 177.03125 188.078125 156.953125 185.964844 156.953125 185.964844 L 120.78125 185.964844 Z M 138.953125 204.074219 L 153.53125 204.074219 C 153.53125 204.074219 157.609375 205.6875 157.609375 212.285156 C 157.609375 218.863281 153.4375 220.585938 153.4375 220.585938 L 138.953125 220.585938 Z M 138.953125 204.074219 "/>
</g>
<g clip-path="url(#clip4)" clip-rule="nonzero">
<path style=" stroke:none;fill-rule:nonzero;fill:rgb(100%,72.938538%,28.62854%);fill-opacity:1;" d="M 275.0625 186.464844 L 275.0625 258.171875 L 320.0625 258.171875 L 320.0625 239.636719 L 294.203125 239.636719 L 294.203125 186.464844 Z M 275.0625 186.464844 "/>
</g>
<g clip-path="url(#clip5)" clip-rule="nonzero">
<path style=" stroke:none;fill-rule:nonzero;fill:rgb(100%,72.938538%,28.62854%);fill-opacity:1;" d="M 247.984375 186.464844 L 267.203125 186.464844 L 267.203125 258.171875 L 247.984375 258.171875 Z M 247.984375 186.464844 "/>
</g>
<path style=" stroke:none;fill-rule:nonzero;fill:rgb(100%,72.938538%,28.62854%);fill-opacity:1;" d="M 162.921875 126.695312 C 162.0625 126.195312 159.703125 124.972656 153.734375 123.15625 L 153.34375 129.847656 C 156.46875 130.957031 159.5 132.179688 162.53125 133.480469 L 162.53125 133.496094 Z M 162.921875 126.695312 "/>
<path style=" stroke:none;fill-rule:nonzero;fill:rgb(100%,72.938538%,28.62854%);fill-opacity:1;" d="M 162.921875 156.277344 C 159.703125 155.570312 156.578125 155.164062 153.546875 154.960938 L 153.546875 154.976562 L 153.171875 161.351562 C 156.296875 161.445312 159.421875 161.851562 162.546875 162.558594 Z M 162.921875 156.277344 "/>
<g clip-path="url(#clip6)" clip-rule="nonzero">
<path style=" stroke:none;fill-rule:nonzero;fill:rgb(100%,72.938538%,28.62854%);fill-opacity:1;" d="M 221.921875 186.464844 L 203.453125 186.464844 C 190.296875 186.464844 185.84375 199.234375 185.84375 205.3125 L 185.84375 258.1875 L 204.3125 258.1875 L 204.3125 245.511719 L 221.640625 245.511719 L 221.640625 258.1875 L 239.53125 258.1875 L 239.53125 205.3125 C 239.546875 189.914062 226.484375 186.464844 221.921875 186.464844 Z M 204.21875 225.050781 L 204.21875 207.539062 C 204.21875 207.539062 204.21875 203.574219 210 203.574219 L 216.34375 203.574219 C 221.453125 203.574219 221.546875 207.539062 221.546875 207.539062 L 221.546875 225.050781 Z M 204.21875 225.050781 "/>
</g>
<g clip-path="url(#clip7)" clip-rule="nonzero">
<path style=" stroke:none;fill-rule:nonzero;fill:rgb(100%,72.938538%,28.62854%);fill-opacity:1;" d="M 372.546875 204.90625 L 372.546875 186.464844 L 343.1875 186.464844 C 335.609375 186.464844 325.484375 193.140625 325.484375 205.609375 L 325.484375 211.988281 C 325.484375 224.457031 335.515625 230.832031 343.1875 230.832031 C 348.125 230.847656 350.4375 230.863281 351.421875 230.863281 C 349.9375 230.847656 347.140625 230.832031 357.765625 230.832031 L 357.765625 239.746094 L 326.421875 239.84375 L 326.421875 258.1875 L 357.390625 258.1875 C 363.734375 258.1875 374.625 253.222656 375 239.339844 L 375 232.242188 C 375 220.398438 365.90625 213.398438 357.390625 213.398438 L 341.953125 213.398438 L 341.953125 204.890625 L 372.546875 204.890625 Z M 372.546875 204.90625 "/>
</g>
<path style=" stroke:none;fill-rule:nonzero;fill:rgb(100%,72.938538%,28.62854%);fill-opacity:1;" d="M 133.453125 164.09375 L 131.375 157.417969 C 128.15625 158.421875 125.40625 159.550781 123.046875 160.664062 L 125.21875 167.648438 C 127.96875 166.222656 130.71875 165.003906 133.453125 164.09375 Z M 133.453125 164.09375 "/>
</g>
</svg>
