<?xml version="1.0" encoding="UTF-8"?>
<svg xmlns="http://www.w3.org/2000/svg" xmlns:xlink="http://www.w3.org/1999/xlink" width="50" height="50" viewBox="0 0 375 374.999991" version="1.2">
<g id="surface1">
<path style=" stroke:none;fill-rule:nonzero;fill:rgb(100%,72.938538%,28.62854%);fill-opacity:1;" d="M 322.238281 210.621094 C 309.21875 210.691406 297.941406 213.816406 288.496094 218.488281 C 285.042969 211.582031 281.539062 205.503906 280.953125 200.984375 C 280.269531 195.714844 279.472656 192.5625 280.300781 186.28125 C 281.132812 180 284.761719 171.101562 284.710938 170.429688 C 284.660156 169.761719 283.898438 166.566406 276.390625 166.507812 C 268.882812 166.457031 262.457031 167.957031 261.703125 169.9375 C 260.949219 171.921875 259.503906 176.390625 258.605469 181.050781 C 257.292969 187.867188 243.613281 212.183594 235.851562 224.894531 C 233.3125 219.929688 231.152344 215.554688 230.707031 212.097656 C 230.019531 206.824219 229.222656 203.671875 230.054688 197.390625 C 230.882812 191.113281 234.515625 182.210938 234.464844 181.542969 C 234.414062 180.871094 233.652344 177.675781 226.144531 177.617188 C 218.632812 177.566406 212.210938 179.066406 211.457031 181.050781 C 210.703125 183.035156 209.890625 187.671875 208.359375 192.164062 C 206.816406 196.644531 188.644531 237.203125 183.878906 247.71875 C 181.449219 253.078125 179.339844 257.382812 177.851562 260.316406 C 177.839844 260.308594 177.839844 260.296875 177.839844 260.296875 C 177.839844 260.296875 177.75 260.492188 177.597656 260.824219 C 176.316406 263.324219 175.5625 264.707031 175.5625 264.707031 C 175.5625 264.707031 175.574219 264.722656 175.589844 264.757812 C 174.574219 266.597656 173.492188 268.300781 172.957031 268.300781 C 172.585938 268.300781 171.832031 263.410156 173.117188 256.695312 C 175.828125 242.625 182.320312 220.691406 182.261719 219.929688 C 182.226562 219.539062 183.46875 215.714844 178.019531 213.714844 C 172.71875 211.773438 170.832031 215.011719 170.351562 215.019531 C 169.882812 215.03125 169.539062 216.164062 169.539062 216.164062 C 169.539062 216.164062 175.4375 191.492188 158.277344 191.492188 C 147.546875 191.492188 132.679688 203.25 125.359375 213.902344 C 120.738281 216.429688 110.839844 221.835938 100.351562 227.609375 C 96.324219 229.828125 92.210938 232.089844 88.308594 234.246094 C 88.042969 233.949219 87.773438 233.660156 87.503906 233.363281 C 66.6875 211.132812 28.222656 195.410156 29.847656 165.515625 C 30.441406 154.648438 34.214844 126.035156 103.773438 91.335938 C 160.75 62.910156 206.367188 70.730469 214.25 88.066406 C 225.507812 112.839844 189.871094 158.871094 130.699219 165.515625 C 108.15625 168.050781 96.28125 159.292969 93.328125 156.039062 C 90.21875 152.605469 89.753906 152.453125 88.59375 153.097656 C 86.707031 154.148438 87.902344 157.175781 88.59375 158.980469 C 90.363281 163.582031 97.609375 171.746094 109.96875 175.8125 C 120.847656 179.390625 147.316406 181.347656 179.324219 168.949219 C 215.179688 155.066406 243.175781 116.433594 234.945312 84.148438 C 226.582031 51.3125 172.203125 40.515625 120.738281 58.824219 C 90.066406 69.722656 56.910156 86.828125 33.0625 109.152344 C 4.714844 135.699219 0.195312 158.8125 2.058594 168.464844 C 8.675781 202.773438 55.902344 225.117188 74.8125 241.667969 C 73.882812 242.1875 73.003906 242.667969 72.207031 243.109375 C 62.726562 247.804688 26.722656 266.671875 17.71875 286.597656 C 7.5 309.203125 19.34375 325.425781 27.179688 327.613281 C 51.46875 334.375 76.386719 322.203125 89.789062 302.203125 C 103.179688 282.207031 101.546875 256.164062 95.402344 244.28125 C 95.324219 244.136719 95.238281 243.992188 95.164062 243.839844 C 97.609375 242.390625 100.105469 240.914062 102.578125 239.457031 C 107.402344 236.617188 112.144531 233.972656 116.25 231.734375 C 113.949219 238.042969 112.261719 245.609375 111.390625 256.535156 C 110.359375 269.367188 115.613281 285.953125 122.488281 292.480469 C 125.519531 295.355469 129.160156 295.421875 131.460938 295.421875 C 139.460938 295.421875 143.109375 288.757812 147.128906 280.878906 C 152.058594 271.214844 156.433594 259.960938 156.433594 259.960938 C 156.433594 259.960938 150.949219 290.351562 165.898438 290.351562 C 171.347656 290.351562 176.824219 283.277344 179.273438 279.671875 C 179.28125 279.714844 179.28125 279.734375 179.28125 279.734375 C 179.28125 279.734375 179.425781 279.496094 179.703125 279.03125 C 180.269531 278.164062 180.59375 277.613281 180.59375 277.613281 C 180.59375 277.613281 180.601562 277.554688 180.617188 277.453125 C 182.808594 273.648438 187.667969 264.96875 194.949219 250.652344 C 204.363281 232.160156 213.386719 208.988281 213.386719 208.988281 C 213.386719 208.988281 214.222656 214.648438 216.976562 224.023438 C 218.59375 229.53125 222.027344 235.625 224.746094 241.472656 C 222.5625 244.507812 221.222656 246.246094 221.222656 246.246094 C 221.222656 246.246094 221.234375 246.28125 221.257812 246.339844 C 219.515625 248.660156 217.558594 251.160156 215.511719 253.601562 C 208.078125 262.460938 199.234375 272.578125 198.046875 275.496094 C 196.652344 278.9375 196.980469 281.460938 199.679688 283.503906 C 201.652344 284.988281 205.15625 285.226562 208.824219 284.980469 C 215.503906 284.53125 220.191406 282.867188 222.511719 281.859375 C 226.125 280.582031 230.332031 278.570312 234.277344 275.664062 C 241.566406 270.300781 245.960938 262.628906 245.535156 252.457031 C 245.300781 246.855469 243.519531 241.304688 241.261719 236.066406 C 241.921875 235.117188 242.582031 234.152344 243.25 233.183594 C 254.738281 216.367188 263.652344 197.890625 263.652344 197.890625 C 263.652344 197.890625 264.488281 203.554688 267.242188 212.929688 C 268.628906 217.664062 271.378906 222.84375 273.851562 227.914062 C 263.050781 236.703125 256.355469 246.914062 254.027344 253.609375 C 249.726562 266.003906 253.09375 271.613281 259.410156 272.894531 C 262.273438 273.46875 266.316406 272.15625 269.355469 270.867188 C 273.140625 269.613281 277.6875 267.519531 281.9375 264.390625 C 289.222656 259.027344 296.234375 251.519531 295.808594 241.355469 C 295.613281 236.726562 294.363281 232.132812 292.660156 227.726562 C 301.820312 223.902344 313.671875 221.785156 328.773438 223.546875 C 361.167969 227.335938 367.515625 247.585938 366.304688 256.0625 C 365.085938 264.535156 358.296875 269.199219 356.019531 270.605469 C 353.753906 272.011719 353.058594 272.503906 353.246094 273.546875 C 353.523438 275.0625 354.574219 275.011719 356.511719 274.683594 C 359.179688 274.234375 373.519531 267.789062 374.136719 252.144531 C 374.90625 232.261719 355.902344 210.445312 322.238281 210.621094 Z M 72.546875 294.90625 C 61.8125 306.625 46.828125 311.050781 40.394531 307.320312 C 33.453125 303.296875 36.203125 286.039062 49.367188 273.597656 C 57.394531 266.019531 67.753906 259.035156 74.628906 254.738281 C 76.195312 253.796875 78.488281 252.417969 81.28125 250.738281 C 81.746094 250.476562 82.007812 250.332031 82.007812 250.332031 L 82 250.3125 C 82.542969 249.992188 83.09375 249.660156 83.660156 249.3125 C 88.460938 267.019531 83.8125 282.605469 72.546875 294.90625 Z M 150.71875 241.703125 C 146.988281 250.824219 139.164062 274.164062 134.398438 272.910156 C 130.308594 271.832031 127.820312 254.09375 133.585938 236.632812 C 136.480469 227.84375 142.679688 217.34375 146.316406 213.265625 C 152.175781 206.707031 158.625 204.5625 160.191406 207.222656 C 162.179688 210.613281 153.0625 235.980469 150.71875 241.703125 Z M 215.300781 272.554688 C 213.714844 273.386719 212.261719 273.902344 211.589844 273.503906 C 211.09375 273.207031 212.242188 272.113281 212.242188 272.113281 C 212.242188 272.113281 220.320312 263.410156 223.5 259.449219 C 225.355469 257.144531 227.496094 254.40625 229.832031 251.355469 C 229.851562 251.660156 229.859375 251.96875 229.859375 252.261719 C 229.84375 262.6875 219.785156 269.722656 215.300781 272.554688 Z M 265.046875 261.195312 C 263.863281 260.359375 264.066406 257.636719 267.953125 249.152344 C 269.476562 245.820312 272.960938 240.21875 279.007812 234.863281 C 279.710938 237.066406 280.132812 239.175781 280.125 241.144531 C 280.046875 254.265625 270.703125 259.164062 265.046875 261.195312 Z M 265.046875 261.195312 "/>
</g>
</svg>
