<?xml version="1.0" encoding="UTF-8"?>
<svg xmlns="http://www.w3.org/2000/svg" xmlns:xlink="http://www.w3.org/1999/xlink" width="375pt" height="374.999991pt" viewBox="0 0 375 374.999991" version="1.2">
<defs>
<clipPath id="clip1">
  <path d="M 58.285156 81.300781 L 332.667969 81.300781 L 332.667969 235.421875 L 58.285156 235.421875 Z M 58.285156 81.300781 "/>
</clipPath>
</defs>
<g id="surface1">
<path style=" stroke:none;fill-rule:nonzero;fill:rgb(0%,0%,0%);fill-opacity:1;" d="M 332.054688 67.109375 L 59.308594 67.109375 C 51.753906 67.109375 45.628906 73.238281 45.628906 80.789062 L 45.628906 248.449219 L 345.734375 248.449219 L 345.734375 80.789062 C 345.734375 73.238281 339.609375 67.109375 332.054688 67.109375 Z M 332.667969 235.390625 L 58.285156 235.390625 L 58.285156 81.296875 L 332.667969 81.296875 Z M 332.667969 235.390625 "/>
<path style=" stroke:none;fill-rule:nonzero;fill:rgb(91.369629%,91.369629%,91.369629%);fill-opacity:1;" d="M 45.628906 262.789062 C 45.628906 270.339844 51.753906 276.460938 59.308594 276.460938 L 332.054688 276.460938 C 339.609375 276.460938 345.734375 270.339844 345.734375 262.789062 L 345.734375 248.5 L 45.628906 248.5 Z M 45.628906 262.789062 "/>
<path style=" stroke:none;fill-rule:nonzero;fill:rgb(73.329163%,73.329163%,73.329163%);fill-opacity:1;" d="M 193.84375 276.460938 L 161.488281 276.460938 C 161.488281 276.460938 160.515625 291.359375 159.5 297.585938 C 157.707031 308.25 146.789062 304.832031 143.675781 307.078125 C 143.265625 307.378906 143.46875 308.042969 143.980469 308.042969 L 247.28125 308.042969 C 247.792969 308.042969 247.996094 307.378906 247.585938 307.078125 C 244.472656 304.832031 233.554688 308.25 231.761719 297.585938 C 230.746094 291.359375 229.773438 276.460938 229.773438 276.460938 Z M 193.84375 276.460938 "/>
<g clip-path="url(#clip1)" clip-rule="nonzero">
<path style=" stroke:none;fill-rule:nonzero;fill:rgb(32.939148%,32.939148%,32.939148%);fill-opacity:1;" d="M 45.628906 67.109375 L 345.734375 67.109375 L 345.734375 307.992188 L 45.628906 307.992188 Z M 45.628906 67.109375 "/>
</g>
<path style=" stroke:none;fill-rule:nonzero;fill:rgb(100%,100%,100%);fill-opacity:1;" d="M 71.765625 164.699219 L 71.765625 160.925781 L 118.078125 136.011719 L 118.078125 143.21875 L 81.835938 162.859375 L 118.078125 182.296875 L 118.078125 189.527344 Z M 71.765625 164.699219 "/>
<path style=" stroke:none;fill-rule:nonzero;fill:rgb(100%,100%,100%);fill-opacity:1;" d="M 129.183594 201.371094 L 129.183594 196.847656 L 130.546875 196.847656 C 131.777344 196.847656 132.917969 196.765625 133.980469 196.597656 C 135.054688 196.414062 135.992188 196.050781 136.800781 195.503906 C 137.617188 194.960938 138.253906 194.179688 138.710938 193.164062 C 139.164062 192.132812 139.390625 190.777344 139.390625 189.09375 L 139.390625 136.214844 C 139.390625 134.640625 139.152344 133.367188 138.6875 132.398438 C 138.214844 131.429688 137.574219 130.6875 136.753906 130.167969 C 135.949219 129.640625 135.007812 129.300781 133.933594 129.144531 C 132.871094 128.980469 131.742188 128.894531 130.546875 128.894531 L 129.183594 128.894531 L 129.183594 124.371094 L 159.46875 124.371094 C 163.996094 124.371094 167.929688 124.890625 171.265625 125.917969 C 174.597656 126.953125 177.347656 128.441406 179.519531 130.398438 C 181.703125 132.351562 183.328125 134.714844 184.40625 137.488281 C 185.480469 140.261719 186.023438 143.398438 186.023438 146.902344 C 186.023438 150.101562 185.523438 153.175781 184.523438 156.128906 C 183.519531 159.074219 181.871094 161.675781 179.589844 163.949219 C 177.296875 166.210938 174.3125 168.019531 170.628906 169.382812 C 166.945312 170.738281 162.433594 171.40625 157.101562 171.40625 L 150.304688 171.40625 L 150.304688 189.617188 C 150.304688 191.207031 150.539062 192.492188 151.007812 193.457031 C 151.476562 194.414062 152.113281 195.140625 152.917969 195.640625 C 153.738281 196.128906 154.675781 196.453125 155.738281 196.617188 C 156.8125 196.773438 157.949219 196.847656 159.148438 196.847656 L 162.742188 196.847656 L 162.742188 201.371094 Z M 150.304688 166.292969 L 156.035156 166.292969 C 159.308594 166.292969 162.105469 165.953125 164.421875 165.269531 C 166.742188 164.585938 168.636719 163.484375 170.105469 161.949219 C 171.574219 160.421875 172.652344 158.460938 173.335938 156.0625 C 174.027344 153.652344 174.382812 150.742188 174.382812 147.332031 C 174.382812 144.320312 174.074219 141.695312 173.472656 139.46875 C 172.882812 137.226562 171.914062 135.371094 170.585938 133.898438 C 169.25 132.429688 167.515625 131.339844 165.378906 130.625 C 163.253906 129.894531 160.671875 129.53125 157.625 129.53125 L 150.304688 129.53125 Z M 150.304688 166.292969 "/>
<path style=" stroke:none;fill-rule:nonzero;fill:rgb(100%,100%,100%);fill-opacity:1;" d="M 212.023438 175.613281 L 207.910156 186.933594 C 207.601562 187.785156 207.363281 188.628906 207.183594 189.457031 C 207 190.277344 206.910156 190.980469 206.910156 191.570312 C 206.910156 193.40625 207.5 194.75 208.683594 195.59375 C 209.867188 196.429688 211.667969 196.847656 214.09375 196.847656 L 216.550781 196.847656 L 216.550781 201.371094 L 190.222656 201.371094 L 190.222656 196.847656 L 192.269531 196.847656 C 193.324219 196.847656 194.222656 196.730469 194.949219 196.503906 C 195.691406 196.277344 196.359375 195.847656 196.953125 195.210938 C 197.554688 194.574219 198.132812 193.71875 198.679688 192.640625 C 199.226562 191.550781 199.828125 190.140625 200.5 188.410156 L 224.417969 124.371094 L 232.828125 124.371094 L 257.222656 191.09375 C 257.644531 192.21875 258.074219 193.152344 258.519531 193.890625 C 258.957031 194.636719 259.472656 195.226562 260.066406 195.664062 C 260.667969 196.105469 261.359375 196.414062 262.132812 196.597656 C 262.90625 196.765625 263.816406 196.847656 264.863281 196.847656 L 266.292969 196.847656 L 266.292969 201.371094 L 236.625 201.371094 L 236.625 196.847656 L 239.101562 196.847656 C 243.421875 196.847656 245.582031 195.128906 245.582031 191.6875 C 245.582031 191.082031 245.496094 190.46875 245.332031 189.84375 C 245.179688 189.207031 244.96875 188.492188 244.695312 187.683594 L 240.375 175.613281 Z M 231.738281 151.332031 C 230.613281 148.140625 229.582031 145.144531 228.644531 142.355469 C 227.71875 139.570312 226.949219 136.871094 226.347656 134.261719 C 226.105469 135.566406 225.8125 136.824219 225.484375 138.035156 C 225.148438 139.25 224.785156 140.488281 224.394531 141.761719 C 224.011719 143.023438 223.574219 144.347656 223.074219 145.742188 C 222.585938 147.121094 222.035156 148.652344 221.414062 150.332031 L 214.09375 170.179688 L 238.421875 170.179688 Z M 231.738281 151.332031 "/>
<path style=" stroke:none;fill-rule:nonzero;fill:rgb(100%,100%,100%);fill-opacity:1;" d="M 273.28125 189.527344 L 273.28125 182.296875 L 309.519531 162.859375 L 273.28125 143.21875 L 273.28125 136.011719 L 319.589844 160.925781 L 319.589844 164.699219 Z M 273.28125 189.527344 "/>
</g>
</svg>
